/* XPM */
static char *fb1c7373551c4f2994a1177946c7f008[] = {
/* columns rows colors chars-per-pixel */
"64 64 61 1 ",
"  c #7C7877",
". c #7E7979",
"X c #837D7D",
"o c #84807F",
"O c #837E82",
"+ c #858283",
"@ c #8A8585",
"# c #8C8987",
"$ c #878588",
"% c #8A8789",
"& c #8D8B8B",
"* c #928987",
"= c #908788",
"- c #938D8C",
"; c #9A8E8C",
": c #93918F",
"> c #9B928E",
", c #8F8E90",
"< c #928F91",
"1 c #8F9094",
"2 c #959393",
"3 c #9A9594",
"4 c #9A9996",
"5 c #969699",
"6 c #999799",
"7 c #97989C",
"8 c #9C9B9C",
"9 c #A1928D",
"0 c #A19693",
"q c #A29996",
"w c #A29D9C",
"e c #A3A19F",
"r c #A8A09D",
"t c #9E9EA1",
"y c #A19FA2",
"u c #9FA0A3",
"i c #9FA2AB",
"p c #A4A3A3",
"a c #A9A6A5",
"s c #AAA9A6",
"d c #A6A6A9",
"f c #A9A7AA",
"g c #A7A9AD",
"h c #ACABAC",
"j c #B1AEAD",
"k c #B1B1AE",
"l c #AEAEB1",
"z c #B1AFB1",
"x c #AFB0B4",
"c c #B3B2B3",
"v c #B8B6B6",
"b c #B9B8B6",
"n c #B5B5B9",
"m c #B9B7BA",
"M c #B6B9BD",
"N c #BABABB",
"B c #C0BEBF",
"V c #BBBDC1",
"C c #C1BFC0",
"Z c #BCC0C3",
"A c #C0C0C0",
/* pixels */
"ccmnfynzzzllzmxnVzlViinnnzVVVxVzVVVgVigVxxxnxxlggxxxxgtiiilldduf",
"zzccfyjyzzjjcczczzxVzfnnnnzVVVVVlVVlViiVlxxxxnxlxxgxcdtgitdfddyd",
"czzmnhzznnnnmnnmVVzxzfVnxnnVVzVzVVVVVgiVgxccxnnlxxxxmd7hgllfszgg",
"zfyfyyzjznznnnnnzVzVzizzVnVCVgVVxVlVVdighlzclxlllldglp7diyy636tt",
"dy6t66yytptpy7ptttttt777i7yiy67yttttt17t62577<<31%%%%$+O+*@XX$<7",
"mmcmncBmxchcfphfglgglgdgiiyif77idpipgtddp88dp36yytwy666<*9>;#<fV",
"hczznmVzMNnNclNnxxxnMcxnVViVVifzlllhldxxhaahf8wfyw6qq333;0>;=<yx",
"hzzhhznfcMxnlhNnllllnllxfzfVg7yVlghghillayypy6wyw0>6w3;3;990>2yx",
"jffffjjzcccxxhMchhkgcchhglgkcugkhdfhyflfyyyyy0wwqqqqqq3*;;q99-fl",
"jjfrrfjvclclhdnccckkxkkhkxkxcudkhhhffyyyyyywfwyyqqqwwq3;;9q9;;dl",
"jjryyfjjccchhdncxklkkgkhllggktgkffflfffyyyywywwyqqqwwq3>33q0><dl",
"jjjfrjjjcnnxhpccxkkkkkxkllkghtikfdflfffyyyt6y30qqqqqq00q30q03<dl",
"fjjrsjjacnMxhpccxxkccbklxxlkcuhkffflyfffyyywy3qy000q090q90w003yg",
"rfffyhjfhhnxgucxkkkxxklklklxxuiklfffyyfyfyyyy;0w03qwwq3>00q003fg",
"rffrszjsdhcxhpnnlkkkkxllxxlxbusgzhfyyyyyyyyyy-3wqqwwrr03690993fg",
"rfBzjcjdphcxhdNMbcccbNMbbbbNZghbzhlhffhyhflfa;6yrrwwryw0609;32fg",
"6666y<66<366366ww654e18e778851255215t%,<<<<<<O<O*<<%6=1OO%%%$O&,",
"yy6yy6fypaapypaspppeu28uueeuu77uitttd<7tyyyyyyy6yayyyyyttyyyytyy",
"zzzzzfCVBBBBNNNBnbNncpcbZbMbbxxxccccnplzzzmmVznzhzzznyyhylffgffy",
"zfzzfyzzmvcvccczccchlukbxxkxkkxklhhlltyglffflhhyhlzznyyyfyyfygyy",
"CzBzzyCCvvmmbbcxckkhkukcbbxxxxxxxxxlltylzzzlzzllfhljzyyffyyyyfyy",
"zzzzfynnjccmnckkcxhhk8gkxxxxkxkkhlhhftyzlfffffyfylllhtyyfhyyyytt",
"zzzzzyzzcvvNncckccccxukcgkkggggglhhhlyylfflfffhyhjlffyyyyyyyyt66",
"CzzfzyVCvmNbckkkhhckk8kbkxxkgkxkghddfyyffflzzhlhlzzflyyyyfyy6t6t",
"zfzfzacvmbNbbbbkbkxkkekkxkgkksgshdghd5phfynlffynlllnliyfyyiyy7t6",
"zfzjzavBvvbbbckkkxxkxekxkkhhsssggddhh7dhfyljfffjfyfzfyylfyyy6676",
"zjffjacBccvbbbkkxhkhkukxhhggsgsglhhhl8dlyyffflfygyynlyyygyyyyO77",
"zzzzchmBBNBCZNNNMbbxbsxxkkkxxxkkclxlxuslyfzznznznlhnnyfnzffffyyi",
"0666y<yyepeuu88ee8857&444477477222225$52<,,67,%<23<=OOO0OOOOOOOO",
"332;6=6652252,,1:::&1#111&&###&:1,,,5$21<5<67$O%OOOXOOOOOOOOOOOO",
"mmmBCjzzcxxxldglhkkskshsksgksuukgggkkdglflflf5560;=*0900r0Of6000",
"zzzznfjfhhhlgeedgggpsupuuuphu44uggguhudutyyyy<<<>*==O0O0fO0fO6OO",
"jlnczfhhsuggbuugssgueueuggggg4ssueuhuusutdp8p#&3****-*-223<3<-<<",
"lfjzhfffhssskuuksggssusussggk4esddghdudppdptp@@-***:&*&33<&<<#<<",
"lfflfdfhxssuguususssusssuuggg4eshdgsuuuupdptp@@-**;>:-;22-$&<%36",
"lfflhfffgiguke4uusssuussggsgu7esddsuuepupt7wy@&:3;*3>22332&--<33",
"hhffffpdssudk74uusgsussgkgsss4esddgupuudt778p&*3;;;332236q<<<<3<",
"fhffdpydgudsg47ussgsssuususus:eeudp8euuudtupp-::***;:223<663<<3<",
"fzlfhppdgdsdk7ugusgsuuu4euuus4ee8pueue8eppppp;32;***>338360w6<33",
"znzlhddhhsllkuugsgsssseusuuuseskukhdgguddpppp233;*;333qwyyyyy=<2",
"6y834&44::::4::::::::#4:>#>>:##>:::#<#%%$@#&@+Xo XXX@XX#XO$@o...",
"603:4&4844e444::444:4#44#>>:###>:44:3=<3q333333333@*-@*:;;-;&&::",
"zzjjvekBbZbkkkksMkbksesksrssssrejvkraqhzjaaaapajjawppqaaappaaask",
"shjjh8hbkbkkkkskkkkgs:ussrsesks>rkjry0fzq8www60qww38q6weywqwprrp",
"shhkk4jbkkkskkskskkss4esesrqeke:rkree4ssaywaawwyyr8q44e8pw8rrrye",
"ssksj4rcbkkkkkskkksss:4seqe4ese:rr44r3pajpwwasawpr663:eepq44wwwp",
"kkhss4hbkkkkkgsskkkkk::ssssssseesrers2pajpwwyawwee8854aaww8wrwra",
"hkkssekbskkkkkkkksssb44ss4eeesesss4ra#ehwwssaqwqeper42erpwradpww",
"kksssssbkskkkhhssssgguuksese444egs44s4essesss844edus83dppwpyw6wp",
"ssssspsbkkkbkkkkssskk44kkeksessssssug4eseeeee844ep8p52p8pppyyppp",
"eskseesbkkkkskhgksskseekssssssssessss:4eeeeuueeedde822pyyddpwpdp",
"skkhsesbbbkkxkbkbkkbkusbkkkkkksssskkkeesspsssessshpp63dhahaaffha",
"444:::4e4e448444444::::44:444::::::44#::#4:::#::-&&&+$-&<&,2-&&,",
"4444e844e4ere444u4uu444444:44:::::4:4:4::444:#:4356322622<222#&,",
"bbkbbNbbjjkkksskkkkkgkkkssess44esesssesuesuuu4sshdhhpddpyppp7526",
"kbkkkkhkjsskkeeksskgskkuse4ks::s44eue4se4seu8:ssppady8w88pat3222",
"Mxhkxksssshhcesxksskssssssssk4:4u4eeseeeeessu4gueeueee88pppu2178",
"kxxxksskshhkbephssssssusssses4:4eeeeeuese8eeu7guu8upusuptpid6267",
"xbxbksskhhlccpusessesssssss4u:444uese4eu8esuu4ueeeususu8tttp7147",
"xxxbxksslkhhk8useussskksuse4u4ueeeeeu4eu8eeue1gguuueue84tttp828u",
"xhhxkkkxkkxsh8ugessesske4su4e44eeeee444seeeeu1sgeuuuupeuupup85uu",
"xkxxkhskxxkhh8pssessussu4ks4e:4ueeeee44sseeu84ggppeeppeuuuup85uu",
"xkxkkskkskkghepususs4ss44ssee::eeeeee44ss8e887sgseppppu8euud75uu",
"Mxxkxksshxkshegss4us4es44sses::s4uesse4ue44775uu8uueppue8uud858e"
};
