/* XPM */
static char *d32c182fc9d0439bfebf10bc5f10f44b[] = {
/* columns rows colors chars-per-pixel */
"64 64 19 1 ",
"  c #9EF4C8",
". c #A5F5C9",
"X c #ACF5CA",
"o c #B2F6CB",
"O c #B9F7CE",
"+ c #B7F8CF",
"@ c #BDF8CF",
"# c #BEF8D0",
"$ c #C3F9CE",
"% c #CCFACF",
"& c #D0FACF",
"* c #C1F8D0",
"= c #CCFAD0",
"- c #D3FBD1",
"; c #DCFBD2",
": c #E3FCD3",
"> c #EBFDD4",
", c #F3FED5",
"< c #F9FFD6",
/* pixels */
"%%=;;;;;;:-XXXooooO*@@@O:,>>>>>>>>>>>>,:O#@@*OXoooXoXO*@@@@*@%%%",
"%%%;;;;;;:&XooooXo@@@@@O=,>>>>>,,>>>>>,-O@@@@*ooooooXo*@@*@O$%%%",
"%%$&;;;;::-XXXoXXO*@@*@@@:,>>,<::,,>>>>@O#*@@*OXooXXX*@O@@@@%%%%",
"%%%%;:;;;%%%@oXXo@*@@@@@O=,,<:%XX$:<,,-O@@@@@*@oX.X$;:-$OOO*%%%%",
"%%%%-:--%%%&&%$oO*@@@@#@OO::=X.XX.X*:>O+#@@@@@*Oo$;::;::;=O%&%%%",
"%%%%$%%%%%%%%%&%OO*@@#OO#==X.XooooX.X==@OO@@**OO:::;;;;;;:-*%&%%",
"&%$$#$=%%%%%%%&%XXO@*@@%-:;XoooXooooX->;%@O*OOXX-:;;;;;;;:-O*$%&",
"$@#@O#%%%%%%%%&OXoXXo$;::;:$.oooooo.@:;;::$oXXoX$:;;;;;;:;@O@O*$",
"O@@@#O$%%%%%%&%ooooo.&>;;;:&XoXoooo.-:;;;:;XXoooX-:;;;;;:=O##@@@",
"#@#@@#$%%$%$$%OXoXXoX%:;;;;:$.XXXX.@:;;;;:=XoooXX*:;;;;;;*O@@@@@",
"$#$@@@O*;&&-;&XXooooX%:;;:;:&ooOoOo&:;;;;:-XoXooXX-:;;;:-O*#@#@@",
"@@@@@#O:,>,,>,$.ooXoX%:;;;;:%@$@@*@&:;;;;:%XoXooXO;;;;;:-###@$@@",
"@@@$@O%,>>>>>,,o.ooXX=:;;;:&O@@$@@O$;;;;;:=XooXo.%:;;;;;:=O@@@$#",
"@*@#@+;,>>>>>>,:.ooXX-:;;:;OO@@@@@@O=:;;;:-..XoXO;;;;;;;:-O@@@*@",
"oO@*O$,>>>>>>>><%.XO$=-;::*O@@@@$@@O$;;;;>>:*X..%:;;;;;;;:*@*@Oo",
"oXoO+:,>>>>>>>>,>@$=-%%=-=O*$@@@@@@@o=:>>>>,,:*O;:;;;;;;;:;OOoXo",
"ooXXo&>,,>>>>,>:::%%%%%-$.oO$$$@##+#*;>,>>>>>,<:&;;:;;;::;=OXXoo",
"oXoX@%%&:,>>>:;-;;-%%%&%oXXXoOO$+O=;:;>>>>>>>>,-$=-;:::-*OOOXooo",
"oXoo%&%$%&::;;;;;;:-%%-OXooXoXoO=;:;;;:>>>>>>>:%%%$=--*OO@$@oooX",
"ooXO&%%%%$&;;;;;;;;;%&$XXooooo.o;:;;;;;:>>>>>,-$%%%%%##@#@@*OXoo",
"oXo%&%%%%%-;;;;;;;;;;$oXoXooooXo;:;;;;;:,,,,<>$%%%%%&*##@@@@@oXo",
"oXO%%%%%%%=;;;;;;;;;:%.oooooooXo;;;;;;;;-=---=%%%%%%%$O@@$@@$+Xo",
"oXo%&%%%%%-;;;;;;;;;:,O.ooXoXoXO;;;;;;:=XO+o+O&%%%%%&$@@@@@@@ooo",
"ooXO-%%%%%&;;;;;;;;;>,:XXoooooXo;:;;;;:*#@@#@#$&%%%%%*OO@@@$OXoo",
"oooX%%%%%$$;:;;;;;;:>><-.XooXoXO-;;:;:-+@@@@@@$%%%%--;%@OO*#oooo",
"oXoXO&&%$OO@;:;;;;:,>>><$.oooXO%%==;;:*O@#@@@@@*%%-;:;:;=$OoXoXo",
"oo..O$@@@@#+#;:;;:>>>>:,>XXoXo-&=%$%--#+#@@@@#+$;;;;;;;::;-@..oo",
"..O;,-+@@@@#O$;;;>>>>>>><;..O%-%%%%%%-;=*OOO@$%%;:;;;;;;;;:,;@X.",
"$;,,,>@O@@@@@O#;>>>>>>>>>,=X=-%%%%%%&;::;-*$%&%%&:;;;;;;;;>,,,;$",
",,>>>,%+#$@@#@O*>,>>>>>>><:$%%%%%%%$-:;;;:;%%%%%%;;;;;;;&:>>>>,,",
">>>>>,:OO#O#@@$O$,>>:>>>,>@$%%%%%%%%;;;;;:;%%%%%$-:;;;;;;>>>>>>>",
">>>>>>,%O*#$@@@@+%,,>>>,>@OO%%%&%%%;:;;;;;-%%%%%%%;;;;;;;>>>>>>>",
">>>>>>,:-;;;;;@O#+=>,>,>@+$@OooOOOX%:;;;;:-%%%%%%%;;;;;;:>>>>>>>",
">>>>>>>;;;;:::=O##o=,,>$O@@$OXXXXXXX-:;;;;;%%%%%%;;;;;;;;>>>>>>>",
",,>>>>:-;;;;;;;@O#@O-,*+@@@OXooooooXO::;;:;=%%%$-:;;;;;;;;>>>>,,",
"%><,>>;;;;;;;;:=+$#@OOO$@@$ooXoXooXo.$:::-%$%%%-;;;;;;;;;;>>,<>=",
".X%:,:;;;;;;;;:;##OOXXoO@$O.ooooooXoX.%;$OO@$$%::;;;;;;;;;>,:%o.",
"oX.X%:;;;;;;;;:;@XXXXoXXoo$o..ooooXXX@&@OO##O@O$;::;;;;;:;;%X.Xo",
"ooo.@,>:;;;:;;=*O.oooooo.O,>&O..X.o$-:>-OO@@*@X.o$-::;::-*OXXooo",
"oXXX:,>>:::-=@+O$OXoooXo.&,,<>&Oo%;::;;:%O@$@oooXXX@&:-$OO@@ooXo",
"Xo.$,>>>>,:++@@*@OXooXoXo>>>>,<>;::;;;;;:$O$OXoXooXXXO#O##@*OXoo",
"ooX:,>>>>,;O@@@@@$XXXXX %<>>>>>>;;;;;;;;:-#oXoooXoooXO*@@@@$OoXo",
"o.@,>>>>>,;O@@@@@#@@@@OO:,>>>>>:;;;;;;;;;:=XXoXooooXX@#@@@#@$+Xo",
"oXo>>>>>>,:O@@@@@O-:::;:>>>>>>>>;;;;;;;;;:-oXooooooooO*@$@@@@ooo",
"oo.=<>>>>,:+##@@O*;;;;;;:>>>>>>,:;;;;;;;:-%%oXooXooXX+@#@@@$OXoo",
"oXXO>,>>,>;@OO@@O&:;;;;;;:>>,,,;=::;;;;:;%%&$XooooXXO$$O@@@@OXoX",
"Xoo.&<,>;%%&=$@O@;;;;;;;;;,<>;@.XO%;:;;;=$=%&OXoXXO$-&&$@@@OXooo",
"Xoo.@>;%$%%%%=%@%:;;;;;;:::&O..oXX.O%;:&%%=%&%X.@$&&%%%&%$$OXXoo",
"oXXOO$%%%%%%%%%%;:;;;;::;=O.XXoXoooX.X%&%%%%$&&$%&&%%%%%%&%O+ooo",
"oO@*@*%%%%%%%%%&;;;;;;;*OO#oooooooooXX;:&%%&;><:$%%%%%%%%&$@*@Oo",
"@**@@@%%%%%%%%%;;;;;:=OO@@#OXoooXooXX%:;:;;>,,>>&$%%%%%%%%@@@$@O",
"@@@@@@$%%%%%%%%;;;;;:$O@@@#OoXoXooXX$:;;;;:>>>>,>%%%%%%%&$@@@@@@",
"@@@*@@@%%%%%%%-:;;;;:*O@@@#*O.XXXX.O::;;;;;>>>>>,;$%%$%%%*#@@@@@",
"@$@@@*O$&%%%%%;;;;;;;=O@#$##@$$$*$@&:;;;;;:>>>>>>>;-;--;=O@@@@@$",
"@@@@@@@%%%%%%%;;;;;;:=#@@@@O%&--&&&&;;;;;;;>>>>>,>;;;:;:;@#@@@@@",
"O@*@@O$&%%%%%%%;;;;;:=O@@@@$%%%%&%%%;;;;;;:,>>>>>:;;;;;;:=O@@@#@",
"*O@@@O%=%%%%%%%;:;;::*O@@@@$&%%%%%%%&;;;;;;>,>>>:;;;;;;;;;#O#@O*",
"%%*@O*=%%%%%%%%=::;=##@#@@@%%%%%%%%%%;:;;%$%;>,,:;;;;;;;;:=+@*%%",
"%&&%*$%%&%%%%%%%-=@+@@@$@O$%%%%%%%%%$---%%%%$%&:::;;;;;;;:;@=%%%",
"%%%%&;&%%%%%&%$OoO@@@@@@@@:>&$$%%%$&:>%$%%%%%%%O+=:::;;:;-$%&%%%",
"%%%%;:;;-%%%$oXXo@@@@@@@+=,,>:&%%-:>,,;$%%%%%%%OXXO$;:;=@++$%%%%",
"%%%%;;;:::%XXXooXO$@@@@@+:,>>,,::>,>>>:%%%%%%&$.oXXXO$$+@@@@%%%%",
"%%%-:;;;;:&XXooooo@*@@@+=>>>>>>>,>>>>>,-$%%%%%OXooXo.o*@@@@@$%%%",
"%%%;;;;;;:&XoooXoXO#@$@O;,>>>>>>>>>>>>,:%%%%&$.ooXoooO*@@@#@@%&%"
};
