/* XPM */
static char *result[] = {
/* columns rows colors chars-per-pixel */
"64 64 126 2 ",
"   c #C62E24",
".  c #CC2E25",
"X  c #D22F24",
"o  c #C53326",
"O  c #CC3226",
"+  c #C7342A",
"@  c #CC342A",
"#  c #C53A2C",
"$  c #CD392E",
"%  c #D33026",
"&  c #D83226",
"*  c #D3352B",
"=  c #D8332C",
"-  c #D2382D",
";  c #C63C34",
":  c #CB3D33",
">  c #D23C32",
",  c #C54335",
"<  c #CD4135",
"1  c #CD443A",
"2  c #CD493C",
"3  c #D24136",
"4  c #D2453B",
"5  c #D8403C",
"6  c #D2493E",
"7  c #CE4640",
"8  c #CD4D43",
"9  c #CE4F4A",
"0  c #D24D43",
"q  c #DA4C43",
"w  c #CE5246",
"e  c #C7534B",
"r  c #CD554B",
"t  c #CC594E",
"y  c #D35246",
"u  c #D4554A",
"i  c #D45A4E",
"p  c #DC5A4F",
"a  c #C75F56",
"s  c #CD5C52",
"d  c #CD5D59",
"f  c #DB5750",
"g  c #D35C52",
"h  c #DA5B52",
"j  c #DA5F58",
"k  c #CE6154",
"l  c #C4645B",
"z  c #CC655C",
"x  c #CB6A5D",
"c  c #D36255",
"v  c #DB6256",
"b  c #D4645A",
"n  c #DA645A",
"m  c #D46A5D",
"M  c #DA6A5D",
"N  c #CD6760",
"B  c #C66C63",
"V  c #CC6C63",
"C  c #CD6F68",
"Z  c #D46660",
"A  c #D36C63",
"S  c #DC6C62",
"D  c #D36E69",
"F  c #D96E69",
"G  c #CD7166",
"H  c #CC7867",
"J  c #C4756B",
"K  c #CD746A",
"L  c #C67A69",
"P  c #CE796E",
"I  c #D37266",
"U  c #DB7165",
"Y  c #D3746B",
"T  c #DA756B",
"R  c #D3796E",
"E  c #DA7B6D",
"W  c #CE7771",
"Q  c #CE7C72",
"!  c #D37671",
"~  c #DB7671",
"^  c #D47C73",
"/  c #DA7C73",
"(  c #D57E79",
")  c #D97E78",
"_  c #E16D63",
"`  c #E17165",
"'  c #E1756C",
"]  c #E17C74",
"[  c #D3826E",
"{  c #CE8175",
"}  c #CD8379",
"|  c #CE8B7A",
" . c #D48176",
".. c #DA8276",
"X. c #D78976",
"o. c #DA8976",
"O. c #D5847A",
"+. c #DA847B",
"@. c #D5897D",
"#. c #DB897E",
"$. c #D7907F",
"%. c #DC907F",
"&. c #E18275",
"*. c #E2857E",
"=. c #E28A7D",
"-. c #D68681",
";. c #DB8782",
":. c #D58B82",
">. c #DB8C82",
",. c #DB8E8A",
"<. c #D59285",
"1. c #DB9185",
"2. c #D6938B",
"3. c #DC948A",
"4. c #DC9A8D",
"5. c #DD9691",
"6. c #DD9B93",
"7. c #DF9998",
"8. c #E48587",
"9. c #E28C83",
"0. c #E19186",
"q. c #E29389",
"w. c #E3998F",
"e. c #E29791",
"r. c #E29B93",
"t. c #E0A197",
/* pixels */
" .Q Q >.3.@.Y B X.X.Q P #.#.{ } <.<.<.=.y   8 #.q.:.@.#.! V V / 0.;.^  .X.R E {  ...Y P @.T c z b n p q 8 i u u u i 0 8 0 1 6 0 ",
"^ ! O.>.,.-.O.^ ! ^ ! Y / #.^ H R +.| E 6 % 6 #.<.O.O.+.( W C  .+.( Q ( ! K R P G I E R X.:.>.1.3.:./ T / #.X./ Y Y T Y T Y Y / ",
"K  .O.Q Q O.O. .^ ! Y ! C Y / Y C R Q V < % 2 >.1.Q ^  .;.0.>.} ( ( R Y Y / R R x V / ( O.:.1.:.:. .V Y #.~ Y Y E ....K ! @.X.@.",
"R ^ +.>.O.;.+.Q ^ ^ Y D Y E Y E / ( O.E 4 X 2 >.5.Q G P  .1.4.O.L ) ^ ^ / R Y I I Y I G O.,.O.:.| Q B Y / A A D ^  .^ C Y ! +.>.",
"^ /  .#.+.+.:.+. .^ Y C I Y V E / R @.&.4 O y q.e.+.H K ..1.3.O.( ( ( +.( Y Y I I Y C R O.X.O.>.>.O.Y Y R A V x E @.R Y U D Y ( ",
"R / R K C P  .#.#.^ Q ( / B V / Y J <.=.2   2 #.,.! I G R X.-.O.( Y / >.@.P Y I A x R 9.9.( ! X.:.+.D F / P V C / @. .Y Z V Y  .",
"Y G G K V G K ! #.X.X.>.+.! R K P @.4.#.6   0 >.-.C Y x I ! O.+...P P X. ./ E b z I R +.+.^ K G  ...Y Y ^  .Y S K  .{ V z V ! +.",
"K x G / Y I I G ^ ! +.>.>. .R I  .1.$.E 4 O p w.:.Y A I G ! { +.>.! P ! ! ^ D a x R  .( Y ( / K P Y F C Q R Y d N ..^ Y A I R R ",
"P ^ #.9.^ Y Y K K ! K { ( P K ! ( O.:./ 1 O u q.-.P I Y Y  .>.:.! C Y ^ ^ R x x A / #.#.R / +./ / C A ! Q R A Z A R ..( E Y Y E ",
"^ #.w.:.K /  .! / ( /  .^ R ) ( ^ Q @.&.0   i =.:.#.R I Y P #.O.G z F Y P ^ K D Y ;.3.+.( ( +.R V Y +. .( ! V A A Y ! +./ C Y +.",
"^ ^ O.^ G ( +.W P / +.( Y ^ O.+.^ Q @.&.4   p @.1.>.K V ^ / ^ O.! I S I  .+.( P R @.Q Q ..Q +.@.K G ( +.#.^ K I I A Y ( +.R  .#.",
"Y R R ^ ! ..! P / ! K A N Y O.>.( ( >./ :   w +.:.O.^ Y R / ^ +./ T b z K { O.;.#.! P .. .Q @.0.+.P K /  .Q G Y E Y C P +.#.@. .",
"N V K / +...! ( +.+.A l V ^ >.>.O.( :.T : O y ..;.O. .*.^ G Y ( ! A k a z K ( #.+.G Y Y Y +.>.:...E Y C K Q P H Y / V G ( :.O.Q ",
"Y C Y  ...G C P O.+.^ C G X.:.O. .^ { T 3 O u ..Q  .@.! ( ! K ( ! z k n N ! >. .! ^ / l K >.1.Q G Y D N ( 0.#.E Y I Y (  .+.>.:.",
"*.>.X.( / C V E #.:.+.) >.q.>.( #.( O.Y : O u / K Q O.O.O.( O.5.3.^ N A C Y +.+.X.( ..( O.:.O.Q P T x z / :.>...G x R / O.O.O.1.",
"#.O. . .+.I A ..%.@.+.9.3.:.>. .) ) #.S $ % u R ^ Q @.#.>.,.r.6.6.X.Y I I Y P  .O.(  .>.3.1.:.O. .I C Y  .O. .P Y Y R ^ +.:.:.<.",
"t u r j f q y u u y u i w w u u 0 0 y < O @ 8 ` A m ..#.#.>.q.>...R H I I U F T Y F m T E o.E U S g b S Y T M z S S m A I ..+./ ",
"$ * + + @ @ @ @ @ @ o @ O O + O O @ % O % O - q < : q u y y 0 6 4 4 4 < 4 6 < < < > : 3 > 3 3 > : - > 2 2 < < > > > 4 > 4 4 4 4 ",
"j f u g i i t g v g n n n v g i u y 2 0 y 6 4 4 1 , 2 0 0 2 1 6 4 2 4 3 > 3 3 > : @ - $ @ - * O @ O = * @ X . . @ @ . @ % o O O ",
" .R K E ..X...( ^ +.<.1.#.%.#.#.=.R G [ ../ Y ] R J / +.@. ./ +.#.X...T A I T F S I E I k n n c n 2 @ = - : q 8 9 y 0 q u i n M ",
"L K P ! ^ ^ ( G Y +.O.:.@.Q Q ^ Y G K P Q O.,.8.;.,.-.( 2.2.,.,.3.2.5.O.! ( ( -.O.+.O.( O.#.Q  .%.M $ % * 0 _ E / R E ....O.@.X.",
"L G ! +.~ K A z A / +.+. .Q K R Y Y D C Q O.:.;.;.X.( K ^ >.O.+.X.O.-.Q ! / ( ^ ( ( ^ ( >.@.O.-.#.M : = @ 9 E / L W X.@. . .^ Q ",
"Y Y ^ ) *.Y x S m V / +.( / Y T U A x Y 9.>.| |  .Y E H C Y R I Y /  .R R  .^ ^  .X.O.X. .^ 9.;.R S ; X $ r E P Q Q ^ ( { .. ...",
"x ~ ..Q #...Y G V G (  .O. .[ Y x x A ^ +.O.>.X.Y Y Y ^ E R ^ ! Y  .+.(  .! ^ +. . .O.@.Q ! +.P C I 4 X : n E K R ~ ~ E P ! #.q.",
"Y Y  . . .O.R Y R (  .@.^ R E C d x T ^  . .#. .C x C Y / ( +.;.( X.>. .X.( G +.+.R ! (  .../ Q P I 5 X 4 E  .Y P Y Y I I A ! O.",
"#./ R R  .( K / / ! +. .K I G z z Z Y Y ( O.O.+.V l x Y ^ W  .>.>.( ^ ! ( ^ K  .#.( P  .@.R Y +.X.m 3 X 6 *.+.K R +./ N x D ! O.",
"O. .R K ^ ! K Y V C +.Y Y Y V A U T Y K O.#.O.#.R z I R Y  .>.3.X.W ! ! (  .( Y E .. .P I K R +.>.F : X 1 R ) Y Y ..R x z A / #.",
"O.Q  . .>.0.+.K V Y ^ Y I T Y F A A J Q >.O.+.O.! / &.! ! 0.3.O.O.^ +.^ ^  .Y b D +.@.H x I G C  .S - & ; x Y D / / R G V Y T R ",
":.-.} ,.4.4.#...Y ! !  .P R Y N N B G @.@.O.;.K ^ +.R G ( O.@.| O.( ^ ..Y G N d F ^ ^ K N Y ! C Y m $ X 6 I N z Y ^ R ! Y I R R ",
",.:.O.q.4.<. ./ ~ Y R  .O./ Y C N ! #.q.>.>.-.^ R / ( ! ( Q :.>.@.+.) Y J C D A x G / E I R ..! Y M > . 4 T U A A Y P +./ G R +.",
">.>.>.>.,.{ C E T N Y ( :.O.^ / ^ ) 0.q.:.;.;.;.^ P  .X.( W ( O.#. .+.( P I z m A Y R E Y @.9.^ H n > & 0 T T Y Y Y ^ X.+.P  .#.",
"( O.( C Q ^ V A m x Y >.,.O.^ Y Y ! ( Q Q O.O.^  .! ^ +.X.^ O.;. .Q ^ >.+.Y N N z Y Y Y R  .+./ R s @ * f I x N A / / P +.#.#.+.",
"{ / ! P / P Y ~ Y P ..1.:. .! Y I T Y P ( #.P K / ! X.9.:.^ @.@.Q ^ ) O.+.R ^ F A ( ( ( ( B A D R M - * i E P I I m I R  .#.@.<.",
"X.E I E ] I T E / ..=.#.(  .( / T Z Y ^ +.#.R Y I Y #.1.@. ...o.+.+. .K / +.R G ..X.|  ./ R U z H v * o i E P R I l I #.@. .O.1.",
"2 < < < 4 < < < 1 2 4 2 6 y 8 8 0 ; 2 8 w t u u 2 w g s c k c M U [ / G A M n k x I E I n S M k c 2 o O 0 T T ~ I x E 9.+.^  .#.",
", < : : : : 3 < < # , < 1 < : ; 1 8 8 < : 6 7 < ; 1 0 8 8 2 - - : x R x z z c g s t t t r r t t t 8 0 q 1 w g s t c T E Y x V E ",
"E I I M m S U ~ ] T Y / ~ ~ F Y / R E ' Y Y / I m I [ ..o.v & & > M / ! E  .+.I S m V Y R A z z x T ..T 8 : < , 1 7 f g g g s e ",
"+.@.Q G +.! K P ..@.#.>.@.@.X.Q  .R Y R @.1.>.! K  ... .%.U $ O 4 I P ) +.,.<.( V A E 1.@.K Y D I .. .C b g i ` S c z k I o...R ",
"/ 1.P K ..I k x I H E  ...[  .H [ T k x  .:.-.( ! Q  .{ ..m $ O 2 T Y ( 3.6.3.>.K G Y +.#.@.Y U /  .R A A I Y +.>.Y G K  .3.<.:.",
".. .Y Y Y A A A x C P E ! Y Y P ..Y N Y +.-.;.0.! G X.@.$.M - % 4 E / ! <.;.+.>.R P Y ^ +.@./ K /  .K I D Y  .O.( ) !  .#.>.O.@.",
":. .^ T Y ( Y D V Y ( ( Y ! ( ^ E Y G K X.-.:.#.Y C E O.6.E 3 % < ~ +.K D D ! ;. .P ^ ^ / X.+.^ ( / ^ C Y E .. .^ / ^ 1.:.+. .:.",
":.X.( Y ^ ! Y Y N R #./ R (  .! G I Y / ^ +.#.....C K  .3.E - & 2 D ..E B N ! 9.O. . .!  .O.@.+.^ ^ / Y P R R E ^ Y  .+.R P >.<.",
"#.O.! Y ! ( ^ / / / +.Q C Y ( / Y I Y ..+. . .( ( R Q ( :.I @ % q ~ .. .Y V Y >.@.!  .K ^ O.{  ./ Y ! +.Q P Y C Y O.>.R K ^ q.3.",
"@. . .! P +...^ / / ( Y V K ! ..Y G R ! (  .Q {  . .( Q :.T 3 % y ..R  . .K K +.+.P Y K H @.@.^ Y C ^ 9.X.R / P ! X.( Y T / ^ X.",
">.O.>. .( O.P B ^ / R P K ^ ( Q K R #.X.L O.>.,.:.( K K o.E < O u ( [ X.X.K Y +.Y C Y D ! } q.=.C C / #.X.! +.#. .R Y Y C z N ^ ",
"+.O.O.>.#. . . .^ R ! P Y =.>.R / &.+.+. .-.e.r.O.W ^ O.:.M < O r ( R  .( ! Y Y C D D Y  .^ +.+.Y ^ ( ^ ( R ^ :.@.R T R B l F ~ ",
"O.-.{ >.>.O.X.( / P K ^  .+.+./ E Y C G ;.:.5.1.O.^ ( >.1.U * O i *.Y G V K (  .Y K D ! ^ ^ ( P L / R ! ^  .^ / ../ P R / Y V V ",
";. .@.@.O.+.+.( / ( P ( +.( ^ +.R B N Y ( 1.2.| :.X./  .%.M - - c +.! A Y ! ( #.>.! K / (  ./ B ! ^ G / +.O.{ ^ ^ ..{ / ] / K B ",
"Y +.+.Q  .+.#.+.O.:.@.Q +.>.#.>. .K K  .:.3.3.:.{ ( / !  .k - = g ^ P !  . .( @.1.X.! ^ Q / ^ C Y ^ Y Y /  .O.O.( #.:.O.( >.+.Q ",
"N ~ / K K R O.>.:.1.1. . .O.(  .#.X.^ ;.>.>.O.>.O.) / Y R k # % c [ Y T E / 1.:.@. . . .^ / ! ^ Y Y / ! ^ ^ ! +.0.:.O.Q O.O.>.O.",
"D F Y Y P ( :.<.:.3.1.[ R K Y ( @.1.#. .( ( !  .( ~ T D Y g @ @ c  . ./  .O.,.1.:.:.| ,.1.! l C / Y W K R T F Y @.:.O.;.O. .+.O.",
"^ K G  .X.@.<.3.<.1.#.K K E ( @.1.1.1.@.X.( ..R x x x C / f = * M =.) ( ( ( ( ;.3.2.,.-.O./ V Y ^ K  .+.R V V H | @.( >.@.^ ( +.",
"b b ` U M I E ] E S M g i _ M S E [ U U U M v h u w g m M 2 X = 2 i w i t 9 d S ' T E I A S Y T Y I E ..H z m R ! D S F Y n b U ",
"< ; 4 3 3 : : : ; : : $ - > * $ 3 $ @ $ - $ o * @ $ < 1 , # > * # o o # + $ $ ; 1 , , 2 7 2 8 e r g k i t i m ` 8 ; 5 : : : > : ",
"< 6 $ o $ $ o o O @ O O % % * @ o @ - O o $ o @ $ 7 f g g A S n M b g g S n w 8 i n k s v g r v s t c i g k m U <   = % X % X X ",
"i m c c n n v i t i i i < * 3 y m M M m M E A A T E +. .>.@. .+. .+.+. .+.#.! C Y 9.>./ Y I A / R x R H H ..H M 9 ; : : 0 1 0 y ",
"d x /  . .(  .../  ./ Y y * - U #.X.+.>.q.w.3.,.1.1.:.Q Q /  .+.X.-.:. .(  .;.( ^  .>. .! Y V Y Y K R Y ( X.Q ! ] Z d n F T ' ..",
"x C ! >.#.(  .#.....+.E i O > U  .Q +.;.:.:.>.,.>.;.>. ./ R Y  .>.,.{ ^ ..^ / +.(  .^ O.>.( T Y K G Y *. .{ @.#.*.Y x m I R / { ",
"F ! +.1.#. .( ..^ R ( R i * - M ^ P ^ R Q :.,.>.-.O.( Y ^ Y D G  .:.| +./ U Y Y P  .O.O.:. ./ Y  . .A ! L ^ O.@.( R S x z K Q Q ",
"C ! +. .Q  .! +.+.P G R i * $ z +. .Y ( O.:.2.:.,.,. .( / A x G  .@.:.+.G D I Y Y ( q.>.{  .~ A X.#.z N  .O.@.@. .R Y V Y / / ( ",
"B Y W P R  . .#.9./ R [ i O $ M O.( / >.:.<.6.t.<.3.>. .E x z Y ..:.>.Y A I A Y / Q X.>.+. .Y N P =.C z #.;.@.:.>.+.Y C / +.+.O.",
"P Y Y D R / X.+. .(  ...g * > U #.Q R { :.2.6.t.<.<.:.( K G I I ^ / ( A N Y K !  .R ^ ! Y R R Y P 9.+.Y +.#.+.+.&.T Y I R  .+.( ",
"( / T A V Y / +.P P +.#.t @ $ S X.( ( Q :.6.6.2.,.3.#./ I R R Y R Y Y Y N G  .+. .( R N A / R K K / .. .( O.:.;.^ D Y R / K C K ",
"/ K F N A G R #.{ L >.=.w O * n X.:.O.( :.6.7.2.5.3.>.P V A I K ..+.Y Y Y ! / / ! X.^ V T ( K K ! / Y Y ^ ) ^ Y P Y ^ G V F Y ( "
};
