/* XPM */
static char *_dd9c1d2b3ef4545f16c6dbe9c9d699f[] = {
/* columns rows colors chars-per-pixel */
"64 64 43 1 ",
"  c #D6BCA0",
". c #DDC39F",
"X c #DDC3A4",
"o c #DDC4A9",
"O c #DEC8B2",
"+ c #E0C6A6",
"@ c #E2CAA6",
"# c #E0C7AB",
"$ c #E4CBAC",
"% c #E8CFAE",
"& c #E7D0AF",
"* c #E9D1AE",
"= c #E5CDB3",
"- c #E8CFB2",
"; c #E5CFB8",
": c #E6D0B6",
"> c #EAD2B5",
", c #E6D1BA",
"< c #ECD5BB",
"1 c #EFD8BE",
"2 c #F1DABE",
"3 c #EDD7C1",
"4 c #EFD9C3",
"5 c #EFDCC9",
"6 c #F3DCC4",
"7 c #F3DEC9",
"8 c #F6E1C6",
"9 c #F8E1C7",
"0 c #F6E1CB",
"q c #F8E4CD",
"w c #FAE8CF",
"e c #F6E4D3",
"r c #F9E6D2",
"t c #F7E8D7",
"y c #FAE9D5",
"u c #F7E7D8",
"i c #F7E9DA",
"p c #FBEDDB",
"a c #FCF0DE",
"s c #FBEFE0",
"d c #FCF2E3",
"f c #FDF6E9",
"g c #FEF9ED",
/* pixels */
"77976r16rw6>>waprp0>wyq04<eyaeweeyyyyr0trw6697ryr86<ypy77-X<<= X",
"78998e48yq6%>rdyrde>8wqr<<raawyaryayyr0tyw77769rq7>377s76<X-1; ;",
"4qq9qr89yr8&>eapyd7-ww9r4<rdtqpitpyry00eyr76727981<eu7y70;o1<<e5",
"40999r12wq1%>9pwry5<qyw91<tdipdietypye09rw72727241<0fprrr=#7<1<<",
"89990r12971@$9p90p0>9rrr11tafgdu0payrr5qw072369269>6dduy0=o4<1<>",
"0re9rq1697>$*8aq0pe,wp903=9fdpreidpq9e0tr772770796>5ypuy0#o4<<>>",
"69q00r46q0<$%9yeryr1rpr64=7pyai7tadyr00iy9667e9761>4ppryr=o<1>>1",
"690q9r6609<+$8yprt01wy076=7pppt0iddpt95yp74664009615pyytr=X111>>",
"9qq9q62696-$$6ypyye,qyq9<<9ppsuepfdds71pp06735e0q6>5ppyyr;o><1<>",
"0wq97<*792-$$6ppyps<wr0q1,0psgs5ppsss7<ppr60; u77746ryyyt,X=11>>",
"ryq962%206-+%6wysye<9w903<0fsgfeiapdpe3pp97733p7q647rpy7q=X<2>@>",
"0qrq77%>72=$-7qpst51wr963<eppfsetfdpp93dyqw7p7797237uuyrr,o<2>**",
"06q6qq->62$$-6ppyy73rrq764rssgduiddiy74pp06606r76227suyry:X<62*>",
"066977>>74$--6yprps<wpq766eppsgutdpai94yp07677r79227psuyy,#<21>*",
"0qq672>>q6-$%6ppypp<wy7677erypfitaapy05yy07677r67626pppyr,#11>>$",
"7qw677>276%$$7pyypy2ryq7e60ppppepdapp64pyq767ey776<6ypyyr=$111>*",
"6qq67q><97>$$7pyyyp3yy0r7<0apastpfdpy7<py77677rq7626uyryy;#342<-",
"96966q>2q9--%7ypypu>rrqq737pppdtydppp74syq7777r0q616pyyrr;+<<2>-",
"7q7777>606>--6ypryp<ryrq6<qppddrtfsdse5pyr7745pqq715uprry;+<<2<-",
"qr7672*7q71%%6pyypu<wrqq6<qddfdttppspu7pyw77<,p7w746yurry;+<42->",
"qwq766>2w9<->9qrpu7>qwq93>rspfsetppdpp7pyqq677ur0627tpyrr;#<6>>>",
"7qwq79*2w9>->9rppe31qw971<rppfstyddpp05pyq76u6e06617puyyr<+<42**",
"76767q<2r9-><7pyyue>ryr736rdpdfttdppy64pyq6677rqq227ppyyp<#<62>*",
"766776>2r9>2>6rpypp<wyq635rppsdttfpdp76yyq7677rrq667ypuyp;$222<*",
"7qq672<2rw>>-7ppyyr<wy9805qrpaditaaap05py07670u77635pyyyy<=4<2-%",
"697677<2q7>%-7pppye<wy9r03qppipttfaap4<py07777pr76<5uyyyp;=444>%",
"677267><q7>>-0ppppi<yyqr619aadditdapp7=ay00976p0q637rryyp<$444<-",
"666667-<q6><1qyppps<wrqq95qpppgitdaap76dpr77e6ye7647yu07p<#<<22-",
"676667-6r7<>>qyyusu<rpwq73yardgerfaddr7pyr7777pqr766pyrry<$<62>>",
"7r7667-2wq<->qpyrpe<qyrr63rdafpueaippdrsrrq966prrq44pyyrr;#1621-",
"7qr667<<q7<%>rpr0ye<qrrr43rpadpieapdspeypr7663qyr744ypyrr==<>12-",
"rqr766>2q6>>>qrryy73rpq844rappdieapppt7r99745<qrw6237r00y=$3-->-",
"7r7667><q6-$>7rryt04yyq7<4yaadietdaya00i777972rrr7647q67p;=342;%",
"77q77q>2q6<$-7yyrrt4rrr0>1eaadaeidyya00pw7766<ryr766r766y-$<-4<$",
"76rr7r>2q2<%-7pu0rt<wy9081qiaaduefaiie0iwq764<ryqq64rr269;$--2<$",
"66yq27><97>%>7yyqrr<qw7645tpsfduedyap07pw6676<rpy734r72<0=#<32>%",
"66ry77<<7q<$<6ryrrt<qy0714ydddie0dpps44yy7676>7rr7<3e766r=X62>-%",
"67qqry>299<%>6yyrre-wrq9618pppye0ayqd71pq7674<7rr6<5e777r;o741-=",
"r77rrr>2q6<><6ur6re<9q0904qappsuedyrr6>y76443>7qq226re777<-71<-=",
"7r777y<2q6-2<6rr70t,89485<0ayppe0ppyr56y76243-7q7626yr777;;771-%",
"7777qr26q6><27yyyre<67467<7ppfpueppyr64r6776<=7eq235rr770=;776-=",
"q777wr22q6>-<7yyr74<6427747ppsfi0itpp437r6663-qr74<57rrey;44#3-$",
"7q72qr-2q6$%%7yr0774r-<q76ysdsft0dpys43rr6664-ryq2<ey7rpp3;64>--",
"q7766q-27>%<-6yrqyu;w<-r73yspffpeypsp73rr762<<r7q64$5rrpp;$u73>>",
"q7666q<<6>$$-6ry7us$7<$77<esisdsep7pp65yq7264-7q7<2;erryp==e144-",
"676<7r2%2>X.=6yy6e7-76><4,7ppspeeprrr44y76667$66q22pp777y=o6-16%",
"776<6r<<2>+X#6rr777<76>27<7yyue56uy0r<4pwq777<76762re37rp$#<->1#",
"72<47r<2<>#XX3rrqr7<q7<2<;0pyee77yr0y43yq7qq74re06<eerrrp;#<>-2$",
"2>>60r2>6>+@+2r0rr5,962><;0ppeeer7ysp5<rr97961rrw227ey07y;X4<<<%",
"6<<200426<+%$6r0004=66-44;7pree7rsyyp63pr7776<q96<66rrr7y,#<42-$",
"62667r2>92%%+2yrr05<77266;0pyp05eyppp33p97653<776>1570eer;$-->>+",
"776690<266>>+4pr0te307274-rppp057yypp43pq66<==r9763477e67;#;-2-+",
"66979r2292>>+7ar0ye<rq26<-0ppyye7pppp4<yw662:<r072<5r0766O#;-<>+",
"269667<7w22< 9dpyye3q927<-rppyy7eyyyy7<y0762:<r992<5re917=$=<<-.",
"22669769962<.2ayyyu,8826<;7yypr7epppre6pr642<<r99225re076;=;-<=+",
"626>792280>2@6apypi<9916<;7pppye7pppr76pr66212yyq664eyr76$=<->-+",
"621>881266<2@8aapyt:8976-<7sp7777sspre3yr90<<6yy9215trr07===<4>$",
"811>8w122*<8*8ppyr5<9q622;rpy4455pyppr7pp00516yr966500r07;==-3<%",
"664680<29*>9<8pwyq53qq653<rsyupe7ryrry7pr9q646qrr86500007$$1=$%$",
"666580<182*2*9pay05,9q96<<rprrse7ypyry7pr99645ryr915t070e$o=%>>$",
"061680<1821**8pyrr0<9qq7<3er0yy77pypye4pyw8212wyr913r0706=X=:1>>",
"0616q8<698<@*2ayrr01wwq73<7rry07eyrry74yyq86<>ppr914t0067%o<:<61",
"097888<8w2<*&8aaq07<wrq64<7yrpe57rrry76yyq0964pye913q0009,o<<>85",
"799789<9w82**8pprrr2ryq74<qyps73ryyyre7yeq7666pyr94<tpr77<o<1>:<"
};
