/* XPM */
static char *_80ff1b1ac3d401ffbb5b478841812fb[] = {
/* columns rows colors chars-per-pixel */
"64 64 256 2 ",
"   c #78150B",
".  c #7B0D11",
"X  c #7A1A16",
"o  c #710D09",
"O  c #7C271C",
"+  c #6E2111",
"@  c #7D2825",
"#  c #7B332C",
"$  c #7B1A24",
"%  c #764836",
"&  c #7F534B",
"*  c #870C0C",
"=  c #86170D",
"-  c #841A13",
";  c #841C1B",
":  c #8C1C1B",
">  c #881717",
",  c #941B15",
"<  c #93151B",
"1  c #931D1C",
"2  c #981A17",
"3  c #8C1012",
"4  c #A91A15",
"5  c #B11C13",
"6  c #84231D",
"7  c #8B231D",
"8  c #892719",
"9  c #93231C",
"0  c #9C231D",
"q  c #962718",
"w  c #99341D",
"e  c #A7251D",
"r  c #B12816",
"t  c #8A1B23",
"y  c #971A23",
"u  c #A71D26",
"i  c #832323",
"p  c #8D2424",
"a  c #8B2A25",
"s  c #882A28",
"d  c #942323",
"f  c #9B2423",
"g  c #942B24",
"h  c #9C2C24",
"j  c #952D2B",
"k  c #9C2C2B",
"l  c #97252A",
"z  c #89352B",
"x  c #92332C",
"c  c #9C342C",
"v  c #993728",
"b  c #8A2A31",
"n  c #962B33",
"m  c #8C3B35",
"M  c #893836",
"N  c #9B3333",
"B  c #933B34",
"V  c #9C3B35",
"C  c #943C3B",
"Z  c #9B3D3A",
"A  c #943437",
"S  c #A32B2B",
"D  c #A72927",
"F  c #B42B29",
"G  c #A3332C",
"H  c #A8382A",
"J  c #B4362B",
"K  c #A72C34",
"L  c #A33432",
"P  c #AB3434",
"I  c #AA3C33",
"U  c #AC3C3B",
"Y  c #A53939",
"T  c #B63836",
"R  c #B32E31",
"E  c #C2312F",
"W  c #8D433C",
"Q  c #8A4538",
"!  c #94443C",
"~  c #9A433B",
"^  c #954B3E",
"/  c #994637",
"(  c #974A35",
")  c #A2433D",
"_  c #A64538",
"`  c #B7453A",
"'  c #A34732",
"]  c #C24237",
"[  c #9A3A42",
"{  c #A73B44",
"}  c #B83D43",
"|  c #A92E40",
" . c #C53F46",
".. c #8A4944",
"X. c #944B43",
"o. c #9B4B44",
"O. c #9A4645",
"+. c #9C5345",
"@. c #9B544B",
"#. c #9D5B4C",
"$. c #955649",
"%. c #994E51",
"&. c #9C5D52",
"*. c #985A55",
"=. c #89564C",
"-. c #AC4344",
";. c #A34B44",
":. c #AB4D44",
">. c #A44C4A",
",. c #A54748",
"<. c #B54A47",
"1. c #A35244",
"2. c #A3544C",
"3. c #AC534C",
"4. c #A35B4C",
"5. c #AB5749",
"6. c #B6574B",
"7. c #A84B55",
"8. c #B64D54",
"9. c #A35353",
"0. c #AD5453",
"q. c #A35C54",
"w. c #AB5B54",
"e. c #AB5D5B",
"r. c #A6595A",
"t. c #B25B53",
"y. c #B75956",
"u. c #9C645B",
"i. c #9C6C5C",
"p. c #996655",
"a. c #966851",
"s. c #A26254",
"d. c #AB6254",
"f. c #A4645C",
"g. c #AC635C",
"h. c #A46B5B",
"j. c #AB6B5B",
"k. c #A76A56",
"l. c #B3645C",
"z. c #BB635C",
"x. c #B36B5C",
"c. c #B96657",
"v. c #A9735D",
"b. c #B6725E",
"n. c #A7644D",
"m. c #9B5764",
"M. c #A95D64",
"N. c #B55E63",
"B. c #9A6863",
"V. c #9A7667",
"C. c #9A7571",
"Z. c #A56362",
"A. c #AC6363",
"S. c #A56B62",
"D. c #AC6D63",
"F. c #A96A6B",
"G. c #B46662",
"H. c #B46B63",
"J. c #BB6C64",
"K. c #B36C6B",
"L. c #BB6D6B",
"P. c #B86566",
"I. c #A37363",
"U. c #AB7364",
"Y. c #AD746A",
"T. c #AD7A6B",
"R. c #A67869",
"E. c #B47364",
"W. c #BB7364",
"Q. c #B4746B",
"!. c #BC746C",
"~. c #B37B6D",
"^. c #BB7B6C",
"/. c #B77966",
"(. c #B86C73",
"). c #AE7472",
"_. c #AC7C73",
"`. c #A67A75",
"'. c #B37473",
"]. c #B47B72",
"[. c #BC7B73",
"{. c #B37B7A",
"}. c #BC7C7A",
"|. c #BA7575",
" X c #AE6A70",
".X c #C45548",
"XX c #C65A56",
"oX c #C94749",
"OX c #C5685C",
"+X c #CD695B",
"@X c #C75A61",
"#X c #C46363",
"$X c #C66A67",
"%X c #C3746C",
"&X c #C57769",
"*X c #C37473",
"=X c #C37B74",
"-X c #C87B78",
";X c #D57A77",
":X c #D2706C",
">X c #9B8578",
",X c #9B806D",
"<X c #A9826C",
"1X c #B7826C",
"2X c #AA8577",
"3X c #B48374",
"4X c #BC8376",
"5X c #B4837C",
"6X c #BC847B",
"7X c #B38C7B",
"8X c #BC8B7C",
"9X c #B78A76",
"0X c #BC937E",
"qX c #B4917E",
"wX c #C38374",
"eX c #C3837B",
"rX c #CB847A",
"tX c #C38A7C",
"yX c #CA8778",
"uX c #CB8674",
"iX c #B37984",
"pX c #C77B82",
"aX c #DA7E82",
"sX c #AB8A84",
"dX c #B58C84",
"fX c #BD8C83",
"gX c #BD8C8B",
"hX c #BA8584",
"jX c #AA9687",
"kX c #BC9283",
"lX c #BC948B",
"zX c #B69789",
"xX c #B99993",
"cX c #BD8A91",
"vX c #BBA697",
"bX c #B4A395",
"nX c #B9A9A3",
"mX c #B597A1",
"MX c #C48B83",
"NX c #CB8B83",
"BX c #C68887",
"VX c #C39385",
"CX c #C7958A",
"ZX c #D4978A",
"AX c #C89996",
"SX c #D49895",
"DX c #D38B89",
"FX c #C8A597",
"GX c #D1A796",
"HX c #C9A8A7",
"JX c #D3A6A4",
"KX c #D6B4A7",
"LX c #CDB7AD",
"PX c #DBA9A6",
"IX c #D5C9BA",
"UX c #DFCCC2",
/* pixels */
"t.q.c.+X.X.Xx.jX=.) 3.t.:.t.6.yXLX%.;.3.y.7.g.<.{.zX*.Z.6.XX+X6.oX=X2XW O.4.<.4.y.9.HXFXM ^ 6.6.3.d.y.lX2X8.r.6.+X+X.X5.0XR.O.7.",
"T y e E r r J L.8 0 0 7 9 0 2 :.SXx 7 9 : ; k e B t.H h 4 F E E 5 6.0.< 0 w , 9 0 > BXrXX q h : , 9 2 %.>.D f 4 E E 5 2 OX>.> y ",
"l.f.i.~.b.&XeXSXj.g.x.I.I.j.@.T.KXS.x.H.T.I.d.1.i.MX!.j.u.x.x.b.W.kXVXA.j.j.R.'.x.X.xXJXq.g.Q.C.k.d.2.~.tXW.c.v.Y.E.W.^.ZX5Xu.z.",
"J.*XdX2Xg.*X{.(.*XN.#XhX_.N.e.e.F.i.q.A.xXlXL.b.Q.NX-X*X}.fX_.K.^.<X*X$XG.F.dXiXl.p.B. XZ.D. XxX7X!.H.4XtX^.%X<XzXA.&X&X!.Q.Y.OX",
"H U &.W ; 9 ; > _ L U d.^ : a ; i B : p H.g.v ` ] J D J _ ^ z : 9 O l } U ~ h.C = 8 O y b a l R.5.J ` ` H G T _ $.X 7 0 3 j / J ",
"5.d._.Y.2.3.2.f.I.v.E.7X<XQ ^ =.*.j.1.2.VX3X1.c.OXd.#.2.j.<Xi.@.' #.&.H.$XU.2XF.' ^ $.G.d.9.0.dXk.3.J.l.4.#.5.v.2Xk.5.5.@.Y.v.OX",
"z.h.].|.l.OXG.gX9XG.!.Q.D.t.z.U.xXiXl.J.-X).h.l.|.fXsXS.A._.).A.J.=XzXQ.z.b.T.P.c.l.`.BXL.H.].5XI.g.[.`.lX}.r.V.).H.y.P.}.AXD.J.",
"h + O 1 - q d h.1.< S D u T E h u.Z , 9 y a i f d g.a.8 3 8 0 2 , N R.^ 2 v h d J T X.4.D , 8 : 9 0 l M %Xy.* X j 7 , h X.A.j a ",
"$.u...Q Z.A.2.0X0X( t.) ;.d.y.5.jX].O.M.M.# w.t.%.V.i.X.9.....Z.B.*.FXU.X.s.,.%.XX0.S.CXq.3.l.$...f.*.=.`.p...p...9.P.r.R.SX#.' ",
"-XwXS.7XMX=XW.wX].s.L.Q.NXyX!.l.BXBXrXeX`.V.T.yX%XD.E.rXrXV.lXBX[.Q.NX^.l.L.hXCX&XI.{.SXMX%XuXV.h.yXeXj.v.4XyX1XC.MX%X=X[.MXd.+X",
"L L Q i.X.; 6 - t [ K 9.}.[ M n | K f a # &.C g P 4 L P l $.).b d 7 < d S K A.'.l m n y A D S & 2.d P S D P G a C.S.X 1 i t a ` ",
"5.;.i.zXp.X.4.4.9.P.N.|.fX*.&.|.M.y.6.5.p.fXa.( 0.>.x.~ ~ tXkXm :.w.1.5.l.l.MXkX! M. X XH.<.,.`.tXW 9.q.w.6.-.o.bX2XQ ^ q.*.r.H.",
"&Xx.%XeXH.$X:XZXtX-X&X=X[.h.W.4XIXHXtXwXU.VX~.[.=XzXqXW.%XyXwXJ.J.yXGX8XwX1X&XU.k.!.xXUXAXwXR.MX6X].3X9XVX[.W.!.BX=XOX=XZXSX-X-X",
"c c K l Y } K d.( d f y 9 a d   HX).8 g l A A K [ {.X.l S d D } { <.f.M s a 1 d d y =.FXC N b K j Y O p./.a G G n K T P 0.r.p f ",
"M Q m ..9.8.^ &.a.o.,.O.o.w.0.o.nX{.x V O.M %.{ 9.SX&.C B m O.7.,.2.f.%.%.>.>.0.:.,.F.HXo.N C M O.,.M 4XZXM B C M O.6.>.*.B...2.",
"U.=X[.dX'.H.Y.~.hXBXBXdXsX{.hXpXmX{.h.^.VXsXhX-XDXSXU.Q.=X9X2X-Xx.v.[.hXBXpXdX_.9X7XsXAXS.g.eXvX-XpX-XSXCXM.[.6X7X^.$XP.{._.4XwX",
"` O.=Xe.s z ' J v T Q i.C j x f D H D d.HX<.J H J E T P d.1Xc x w T H H P q.i.p c a S v J 9 jXnXS D _ J H ' R h.h.j w H I Y B T ",
"G ) *X2.i v V v v _ X.U.9.[ B C ~ _ V Z.nXO.8 w O.Y Y Y G.^.n i G V n L U M.F.O.x B m B _ j sXHXt l B ) ) N { Q.K.6 8 H N N / ` ",
"^.=XNX%Xb.$X/.5X^./.=XNX[.H.H.8XxX=X/.MXJXeXE.b.2XzX'.Q.6X-XK.H.=X8X5XJ.W.MXMXh.j.!.dXAX=XK.ZXSXJ.!.K.9XhXL.'.eX*XH.&X&X[.[.J.OX",
"/ ) { <.XXXX7.{.<.v D T L T T j.BXR ( <.P <..X` @.2X3.;.;.T y.+X-.Y.[.U j N U v <.P {.*XY ` T G .X6.O.I.%XU o._ } OX8.-.|.L.k w ",
"O s j Z _ I O.`.L @ 8 D x G H Q ).4 v I y N I f %.B.s i z f V / } u.f.g 6 a h v G 1 u.A.g Y D 8 I c i i.w.* + k N ^ ~ ~ ).A.: 8 ",
"<X9X8X3X^.1XR.`.~.<X9XCX<X/.b.<XzX&XuXuXBX=X^.wXZXFX].[.6XwX6X6X*X`.`.H.&XMXrX&Xb.!.2XkX&X4XtXdX*XrXwXFXZXK.4XMX8X1X1X1XV.<X/.1X",
":X&X|.g._ 5.o.~ t.:.@.MXP.6.6.<.y.XX.Xc.AX#X#X%XOX@X:X:X!.Q.0.>.<.,.2.y.:.W.-X<..Xy.3.6..X] hXAX<.@X$X#X#X:X;X=XH.;._ _ ~ 0.c.` ",
"J Z @.!     q F G 3 X U.-.4 e r J 4 5 v V.S P j G e J ' Q =.d X , 0 g w o ( W.e r 2 F r 5 4 p.B.k D H e w V T X.X.  * 8 D c O , ",
"[.K.gXAXQ.T.dX`.u.;XMXKX6Xr.g.F.!.W.W.~.xX{.(.L.B.K.-X(.'.AXMX X{.gXB. XpXGXKXe.g.F.F.|.J.G.gXvXe.%XE.i.Y.^.$X=XHX'.U.8X{.F.`.;X",
"t.4.r.H.c.d.E.R.P.$XOX&X0.XX#XyXyXy.OXc.H.0.y.XXu./.Q.f.@.l.D.d.J.E.D.XX$X$X$X.Xz.l.MXyXc.XXy.e.e.y.w.D.~.l.3.r.L.l.d.j.Y.D.z.:X",
"= X > < : > p ..D : D 2 - R D $.l.e J h < < : , O o.@   * < : i : M ~ 4 9 9 = 2 f 7 e.6.e J u y t p t C O.; . ; 3 t > : ! A < 9 ",
"d.f.F.L.d.d.f.2XU.&.d.Y.S.P.g.2XeXc.$Xj.!.K.!.W.T.ZXQ.u.e.J.G.f.*.<X9Xe.g.Y.Y.H.J.Z.MXeXd.+XG.F.Q.|.Q.8XfXZ.q.f. XK.d.4._.).q.c.",
"x.e.].5X&.4.u.M.f.l.u.qXdXQ.'.Q.$X;XOXv.CX2XK.~.f.!.L.G.f.[.T.p.&.u.*.Z.A.B.zXMXL.K.K.*X:Xz.].jXW.W.x.j.~.W.x.v.dXj.#.&.f.Z.r.l.",
"q < O.@.  6 s t > 2 + $.3.< y < u T D 9 f.M X   o > k k 6 ^ W + 0 :   p 2   j.-.: j ; K T f ! B.= = *   = 0 0 g r.; - 7 > ; ; q ",
") +.Y.B.O Q W M O.-.M <X~.M [ ..O.3.:.$.8XF.X.Q X.+.+.X.$.h.$.# B Q M ~ ~ ..9Xr.M Q ..o.6.5.i.zX^ o.( $.+.^ +.s.R.M ( ^ # ..X.( ",
"9XzXAXCXV.CXZXxXAXAXhXxXzX`.hXnXnXhXVX3XSXJXgXhXAXJXlX6XDXSX{.hXSXzXAXSXAXxXHXsX{.dXHXAXNXrX{.HXFXgXiXFXJXhXgXxXAXC.MXAXxXFXSXVX",
"<._ T oX.X` 6.>X~ G ' I B 6.oXK.i.Z V -.T G Z U ,.d.^ <.] T .X` J j.R.K c / E / <._ Q.u.[ Y I F G ` N 4.4.Y <._ oX.X` H 1Xh.N c ",
"I N A I e D ~ i.x = 7 p s a < %.@.i p j d g L P -.t.~ P P v ' S h d.r.: p 8 9 i g 7 4.X.$ j N j h G k 3.0.c G c c H D g v.@.X 9 ",
"c.v.dXVXW.wX8XfXE.#.w.7XzXv.n.<XtXT.[.Q.CX0Xj.d.=XtXv.x.H.0X7X^.^.0X4Xq.4.a.zXdXb.s.4X6XY.].{.lX^.x.g.yXtXg.j./.zX=X&X/.VX3Xp.5.",
"c.d.dX9X-.6.d.8.OXt.-.GXAX~ 1.O.8.A.9.$.KXGX3.x.z.&Xy.#Xl.tXS.r.c.2.#X$X6.l.IXpX^ $.+.3.A.M.S.LXuXe.t.L.$Xl.l.^.dX0.z.c.8.G.x..X",
"H / R.*.> 6 O y Y ) L BX).o 6 ; > b $ $ CX!.; V _ ~ Z { Z S.Q t 6 + p Z c ^ FX%.- 6 ; : b $ M AX3.j Y { { [ ) 2.C.s p p 3 A X.T ",
"n.p.zXdX#.s.$.F.I.f.k.bXCX+.a.j.Y.Y.Z.F.KXVX#.d.D.p.p.s.v.zX<X&.#.p.R.I.j.i.nXpX( 4.h.[.Z.Z.`.KXh.&.g.h.u.A.s.1XxXh.1.#.*.R.a.b.",
"c.s.D.G._ :.w.VXVX:.1.p.w.:.6.$XFX{.$.$.g.p.#.r.t.Q.4X4.w.J.d.:.:.G.FX[.t.4.d.0.t.x.T.AXZ.&.f.k.4.w.k.p.T.~.#.k.H.5.` c.[.CXq.q.",
": X > 9 8 3 : B.B.= a x , q F ; B.O.o   2 > s y t $.#.X = = - = 2 p C.o.; a 0 1 0 G M e.i . = 2 > 1 ; @ w.<.. * :   3 : Q Q.A O ",
"B.C.=.B.`.(.F.zXSXO.N.N.*. XA.M.nXfX*.(.M.=.B.*.9.B.V.u.Z.m.B.{.`.C.JX{.@.g.e.M.K.g.`.HXS.N.P.m.=.S.m.=.`.B.Z.S.m.Z.Y.`.>XHX&.9.",
"eXeX<XFXdX[.Q.6X[.x.K.T.KXZXQ.^.0XtXyXQ.lXKX3XwXH.j.T.tX6XqXFX6X~.Y.}.D.c.b.8XKXuXU.].VXtXuX|.vXZXE.eXD.H.-XyXv.vXFXT.U.T.3Xk.b.",
"k l M 1Xz X X .   l g Q yX@.6 j < O f o a.ZX6 v N f x N d f.3Xo   ; > > S 7 r.CX2 z l * i ; o >XuX. P n y P L 6 {.j.o   ; > : H ",
",.0.U.FX*.O.9.9.q.e.e.S.GXa.#.f.M.g.w.@.jXJXM / @.2.g.o.o.CXCX# 1.7.r.9.t.4.VXHXv r. XA.h.f.=.bX8Xz %.@.r.9.o.@.HX2X# 2.9.9.w.t.",
"H.E.tXtXI.H.|.CXqXY.*XQ.wXf.|.~.LXGX^.4X-XiXi.$XU.jX9XG.%XNX[.h.&X[.AX6X~.E.4XU.x.*XsXIX3XyXT.MXE.D.D._.CXY.K.|.MXY.E.1XBXCX'.&X",
"N z L d c L G v.X.a D 1 f d k p jXl.8 9 y p m P n <X^ f L 7 D V G ;.K.m x 8 q 9 g l ..zXx w s y f S j d.%Xa S D l h H x e.H.O g ",
"A z z m Z ;./ U.p.X.-.Z C ! ~ M IX].B B m M Q A X.dX$.j B z ! o.( +.}.%.;.( / / ! O.R.KX+.V Q b B A m Y.[.@ a B C B _ z Q.}.Q +.",
"|.;X[.VX=XrX_.ZXCXpXBXAXdX5X}.hXHXsXQ.DXKXlXBXBXCXAX|.*X-XqX9XyX1X[.JXpXBXDXAXC.BX'.cXJXY.-XZXLX7XfXgXxXAXR.5X5XhX6XrXL.AXSX{.NX",
"` @.MX@.z v ' R v ` X.,XO.B O.I H ' w 4XUX0.} ` -.E 6.U L.dXn B H ` k _ Y C.C.n ) V P ' H 2 LXUXP I :.<.<.-.U <XR.A Z _ P c ' ` ",
"9 ;.*XC - - g 1 0 k C u.A j g 7 x Y > K.KXb > 1 S H q 0 l.L.-   , 7 - f S *.*.t M b s M j t JXPX* * q D G 9 h x.2.  > d 1 7 h D ",
"1XtXSX]./.^.`.C.^.~.[.VX~.D.j.<XxX-Xh.GXUXpXF.W.}.8XW.^.kXCX/.v.uXR.V.E.!.fXVXU.h.S.sXjX*XU.KXKXH.E.!.4XqX].eXCXNXT.^.T.R.I.E.4X",
"l.3.8.e.%X#XF.jX$X*.3.y.9.2.3.2XAX8.+.:.@X#Xz.OX(.dXG.A.M.8.!.-X@X2XhX6.,.e.w.1.6.7.zXDX8.5.<.6.$XL.@X[.{.M.0.7.y.&X:Xt.qX].>.r.",
"X > y n U S { iX{ s y k N Y K r. Xy y , * S c , [ u.-   i y j I u ).}.l < l K g P d B.9.3 a , , N a y 8.^   - y < N L j ^.J.l t ",
"k.|.}.)./.!.Q.sXl.k.j./.E.x.t.U.lXL.g.b.~.K.|.!.DXAXj.G._.|.!.!.L.dX2X2.d.U.~.x.c.j.sXgXw.k.U.S.E.D.P.ZXkXf.H.[.4X~.=XH.3XR.q.h.",
";XNXfX XG.b.d.>.6.OXW.VX%Xz.6.XXK.#Xc.b.KX;X*X=XpX*X:XrXhXhX-XP.c.2.+.y.&X4XtXy.OXy.OXJ..X+XVXHX!.-X:X;XNXaXaXBX4Xl.%Xc.5.^ x.:X",
"T O.%.A > - , F e D 6 &.{ S e r e e 5 8 <XoXF G U T J ` ,...y 3 q D S D 2 W U.4 D e 5 q 5 5 X.zXG R P R T P T 2.Q . > 2 D D v 4 ",
"j.q.U.I.%.Z.B.B.r.H.U.CXv.2.#XM.M.L.w.d.FXT.4.k.w.2.l.g.r.^.u.*.e.M.*.f.J.4XCXd.y.z.r.d.c.5.T.vX6.c.c.4.+.l.t.$XT.=.&.D.p.*.h.H.",
"%XE.4X-X-X-XhXVXfXeXwX0X1X%X=XFXDX%X-X^.tX=Xb.OX%XwX[.[.Q.=XeX[.eXfXfX[.MX6X6XJ.BX{.FXlX^.uX[.cXJ.$XH.4X3XQ.!.Q.BX*X[.4XfX8X=XDX",
"l z s l A b n %.I D R D H E h x.z., J D u F R E C l.B b s s A j a Q 5.0 G P D T P b *X2., E F u N S g w.w.6 a s y k p s 1.;.f F ",
"~ o.X.,.,.,.%.S.:.P I ' _ <.v v.uXH ` _ I _ U T X.-X2.O.O.O.,.O./ 4.x.G Y ' I ` ,.C NXE.v ` ` -.` <.' c.&XQ ! +.o.2.O.W j.g.C P ",
"3XT.0XVX[.].<X7X}.}._.zXAX}.'.zXJXMXtX3XvXcXBX8X4XZXZX4X4XCXNX3X{.hXkX}.BX_.xXAX]._.AXGXwX1X7XjXtXyX[.fXGX8X_.7XxXdX{.].MXdX].}.",
"! M &.S.z m Q W n { M ].'.{ <.;.>.w.) ! `.%.C ! V x ;./ @ q.d.# [ C M C { ..dXA.U 3.,.8..X_ #.V./ Z ) m ! ;.B m h.^ C Y x z / >.",
"b X X.2.X 6 X X 7 g O s.#.; S z 8 H q 8 2.x X 8 > > g p O >.~ + : O X > d # K.o.q v 6 w D q m *.  = = = - f 1 h #.O O 8     8 q ",
"l.p.0X<X% h.l.v.b.x.p.kX3X^ d.p.k.c.b.k.yX{.i.#.s./.E.p.v.9Xi.& k.a.v.J.^.a.0XV.( p.h.j.J.z.'.gXR.U.$.h.Q.H.f.6X8X$.@.f.V.U.L.#X"
};
