/* XPM */
static char *result[] = {
/* columns rows colors chars-per-pixel */
"64 64 148 2 ",
"   c #B28D77",
".  c #B98F76",
"X  c #BA9077",
"o  c #B7917C",
"O  c #BC937C",
"+  c #CE916B",
"@  c #D19067",
"#  c #D4946D",
"$  c #D8976D",
"%  c #D7986F",
"&  c #D9986F",
"*  c #C39576",
"=  c #CE9672",
"-  c #C69877",
";  c #C3967B",
":  c #CA9778",
">  c #C5997E",
",  c #CD9B7C",
"<  c #D39672",
"1  c #D99770",
"2  c #D59A75",
"3  c #DA9B74",
"4  c #D59D7C",
"5  c #DA9E7B",
"6  c #DCA17D",
"7  c #E0A47E",
"8  c #B59484",
"9  c #BB9684",
"0  c #BE9986",
"q  c #B79889",
"w  c #BB9A8B",
"e  c #BEA296",
"r  c #BFA69B",
"t  c #C49B84",
"y  c #CA9E84",
"u  c #C39E8B",
"i  c #C89F88",
"p  c #D19F81",
"a  c #CBA086",
"s  c #C5A18E",
"d  c #CCA38C",
"f  c #D4A285",
"g  c #DCA484",
"h  c #DEA887",
"j  c #D3A58B",
"k  c #DAA68A",
"l  c #D7A98F",
"z  c #DDAA8C",
"x  c #C5A494",
"c  c #CBA694",
"v  c #C4A897",
"b  c #CCA996",
"n  c #C3A79A",
"m  c #C9A698",
"M  c #C6AA9B",
"N  c #CBAB9B",
"B  c #D4AB94",
"V  c #DCAD93",
"C  c #D2AE9B",
"Z  c #DAAE99",
"A  c #DDB096",
"S  c #D5B19D",
"D  c #DDB29C",
"F  c #E1A683",
"G  c #E3A985",
"H  c #E0A788",
"J  c #E2AC8C",
"K  c #E4B08F",
"L  c #E1AE92",
"P  c #E3B295",
"I  c #EAB595",
"U  c #E2B59C",
"Y  c #E9B699",
"T  c #E6B99F",
"R  c #EAB99C",
"E  c #C6ADA2",
"W  c #CBAEA2",
"Q  c #CDB1A5",
"!  c #C6B0A9",
"~  c #CCB4AB",
"^  c #CFB8AE",
"/  c #D3B2A4",
"(  c #DCB5A3",
")  c #DDB9A6",
"_  c #D2B6AB",
"`  c #D8B7A9",
"'  c #D4B9AE",
"]  c #DCBAAC",
"[  c #CEB7B0",
"{  c #CEB9B3",
"}  c #CDBCB9",
"|  c #D0B7B0",
" . c #D2BAB3",
".. c #DDBEB2",
"X. c #D3BEB9",
"o. c #E2B6A1",
"O. c #E3BAA4",
"+. c #E8BCA6",
"@. c #E3BDAC",
"#. c #E8BEAA",
"$. c #E2BEB2",
"%. c #D6C2B5",
"&. c #DEC1B5",
"*. c #D6C1BC",
"=. c #DBC4BC",
"-. c #DEC9BF",
";. c #E4C0AE",
":. c #EAC1AC",
">. c #E4C1B3",
",. c #E9C4B5",
"<. c #E3C4BA",
"1. c #E9C7BA",
"2. c #E4C9BD",
"3. c #EBC9BC",
"4. c #F0CBBE",
"5. c #D5C5C4",
"6. c #DAC6C1",
"7. c #D6C8C7",
"8. c #DDCAC4",
"9. c #D5CACF",
"0. c #DDCDCB",
"q. c #DED0CE",
"w. c #D7CCD1",
"e. c #DCCFD4",
"r. c #DED2D4",
"t. c #DED4D8",
"y. c #E3CDC5",
"u. c #ECCEC2",
"i. c #E3CFCA",
"p. c #E5D1C7",
"a. c #E9D0C7",
"s. c #E4D1CC",
"d. c #EAD4CC",
"f. c #EAD8CD",
"g. c #F0DBCE",
"h. c #E4D4D3",
"j. c #EAD6D3",
"k. c #E7D9D4",
"l. c #EAD9D6",
"z. c #E4D7D9",
"x. c #E6DADB",
"c. c #EADCDC",
"v. c #F1DEDB",
"b. c #EAE0DF",
"n. c #E7DCE2",
"m. c #EADEE2",
"M. c #ECE1E4",
"N. c #EFE3E9",
/* pixels */
"s c i u s s w x s s d v b N N v M N / N N / / / Q Q W W N M M M W Q / / W M v v n x x x s w u u w u u u t u u x x m x x x s s m ",
"b b b m N N b b b N N N S S S S / / / W / / / / ` / / / Q N Q / _ ` ) %.%./ Q E N W W C C m b b c b b b c c m m m W W E W m N m ",
"` @.( / S ) ) ;.) ) ) ;.) ) %.S ] ] ` ` ` ` ` ] ] ` / ` ] ] ` ` ] ] &.&.&.&.] ] _ ] ] ] ] ) O.` ` ] ] ) ` ` _ ] ` ......` ` ` $.",
"$.$.$.$.&.;.;.>.,.<.>.&.&.&.;.;.@.>.;.;.>.>.@.>.;.] ] ;.>.>.&.;.&.&.&.] &.<.<.<.>.$.$.>.$.$.$.@.` ] $.@.$.>.>.<.$.X.<.<.$...$.$.",
"$.<.$.$.$.$.;.&.$.$.$.$.&.$.$.$.@.;.@.] @.@.;.@.] ] ;.>.;.;.;.>.;.&.;.;.;.&.3.,.>.$.$.$.@.>.] ) ] ] ..>.>.>.$.$.*.$.<.$...$.$.` ",
"$.$.$.$.$.$.;.;.$.$.3.$.>.$.$.@.@.] ] O.@.;.;.] ( ;.;.;.;.>.;.;.] ;.;.;.;.;.,.3.1.>.$.$.$.@.] ] ] $.$.>.>.$.....<.*.$.$. .] $.` ",
"$...$.$.$.] ) ;.$.$.$.$.$.$.>.$.] O.O.O.@.;.@.( S ( O.O.) @.;.+.( ( ;.) ;.>.>.2.1.>.>.$.@.] ) ] >.>.@.$.@.$.$.$.$.$.$.$.] @.$.] ",
"$.] $.$.$.] ) @.$.$.$.$.$.$.$.#.@.O.O.( O.:.:.o.S ) ;.O.O.O.@.;.D S ) ;.;.;.;.;.,.,.,.$.` ] ] >.$.$.>.@.>.@.@.$.$...` $.$.@.@.@.",
"@.@.@.@.@.+.@.@.#.$.$.$.$.$.#.@.o.o.o.+.@.#.@.@.@.#.#.@.@.o.o.@.O.( ;.O.;.;.;.;.;.,.,.;.>.] ] >.$.] @.$.$.` @.( ` $.#.#.o.( o.o.",
"#.@.+.@.+.@.@.@.@.#.@.$.#.#.#.#.o.D +.#.@.+.O.+.#.#.#.#.:.+.( +.;.U T ;.O.;.O.;.;.;.,.2.3.] ] >.$.@.o.@.o.( Z ( ( $.$.#.@.o.o.o.",
"+.o.o.o.o.O.@.( o.O.O.o.o.#.+.o.Z L U o.o.#.#.@.O.O.+.#.o.D Z o.:.T :.T O.O.) ;.,.,.,.2.,.<.>.&.] $.o.#.o.( @.$.$.$.#.$.#.+.Y o.",
"D D Z D U O.o.B C o.o.o.o.o.o.L V V U o.o.@.+.o.( U @.#.U Z Z D D T ;.D O.T ) ;.;.;.;.;.<.u.2.] ] @.$.@.@.@.#.$.#.$.#.#.+.o.l k ",
"d l d B P o.o.Z Z o.o.o.U o.U L V U U o.o.o.( D Z Z ( +.o.o.o.U D D D T O.;.O.;.;.;.;.] &.2.2...$.$.$.$.@.o.@.@.o.] $.@.Z Z j j ",
"B B B V U o.@.o.Z Z P U L L U L V P P o.( O.o.o.o.D Z D +.+.o.o.D T D T D T O.;.( ] ;.] ` ] ] ..$.$.$.$.$.$.` C ` $.o.Z Z Z l Z ",
"o.D A U o.O.o.o.P V L L k k L V L P P P D @.@.#.#.@.@.o.@.o.o.U A A A A A A D D D ) ;.) ) ` / ] $.$.$.$.$.$.` ` $.$.$.( Z ( Z o.",
"Z D U U o.U U U P L P L , , L P Y U P Z o.o.O.O.@.$.@.O.D Z Z P P P P P P U U A D D D ( ( ) o.) $.$.$.4.<.<.<.<.<.4.4.$.` ` Z ( ",
"V P U U U o.U U U P U Y y y L U Y U U U o.o.o.o.O.@.O.U Z P L L L L I L J L U Y Z U o.o.D o.o.( o.$.1.4.u.1.u.u.$.4.u.$.o.O.o.( ",
"P P L L P Z Z o.o.U U P V z U T T o.U o.L o.Y o.U Y U U P V h p 6 5 p 4 p p p p p L U U o.Z o.D o.@.$.$.1.$.@.@.@.o.o.( o.+.@.o.",
"U I L J L P U Y Y P P P P P P Y Y o.U o.U P U Y P P P K J H g 5 6 4 < 2 < 4 < : p p k Z U U U o.o.o.+.#.@.O.( ( ( Z Z Z Z U U Z ",
"J K H H H J L p g H H J H g g p k H k H z L P L h 6 6 6 G G G G G G F 5 g g g 4 p p p k L L P U U U o.o.o.D Z Z Z C Z B B B B Z ",
"p p p 5 g 5 3 < # < < 1 < < < 3 5 p p g k k L J 6 + + 3 3 6 6 6 F G G G F F F F H J I K P Y P V V L ( o.Z Z o.o.Z D D V k B B V ",
"3 < 1 < 1 1 1 1 & 3 $ @ @ % 3 7 7 G G G H L K G 6 + @ $ $ $ 3 3 2 3 5 7 F F F F J I R I I I z j j Z L Z U O.+.#.o.D Z B B U U V ",
"5 < 1 5 7 3 3 3 3 3 % $ 3 6 6 6 7 G G J H H G 3 # @ # $ $ $ 3 3 2 4 5 5 3 5 3 F H g H H f k k g V Z U L U o.o.+.D D U ( U ( o.Z ",
"g < < 7 F F 7 g 2 3 2 5 F F g g H H J J J H p < + % & 3 & 3 2 6 5 5 5 6 g g p p p : : < , f k k k L L Z Z U o.o.O.;.@.+.o.o.D U ",
"J p 5 G h h J J h 6 g z J z z K J P z z K H 5 = < 5 7 7 g 6 G z z z z z h J h k g f f f k z A A z V V P U A U +.:.:.:.+.O.( D A ",
"L J H H J J K P K z z K P z z P L Y U I L H 4 < 5 H G J J z P Y P L P P L V V V A L z A P P Y P B J B V P z B o.R +.#.@.#.+.D B ",
"I L h k P L P P P P A K L V L V A P T I J H 4 f h J J P P P T O.o.A D U U P P U R O.U T O.T Y D L L z B B f j P +.U o.+.#.+.Z B ",
"L L k L z z z P K P P P L L L P A U Y I J g 4 g z z P P U Y O.+.o.( U o.o.O.U O.T +.O.o.O.T D P Y L z z k p f V Y A A D o.o.Z V ",
"f f k V z k z J P I Y Y P P I A z P P J h f g J g f z A U U O.+.+.O.+.U O.+.O.O.o.o.U A D T A A Y P z z f j z l z V B A U o.o.U ",
"p z V L L J z z A I T I U Y P P L J h g k J P I z , f k V P D U O.O.O.U o.O.o.U U U ( A A A D P U A P P L A P P B j y d o.+.o.O.",
"p p f f f f , f f j j f j j j j f , - : f f f k f p y , l d d B S C B C B Z B C C S S C C A A B A B B z z z V V V f > a B D S S ",
"- * * * * - ; > > > t t a t a a > ; * O ; > - > , y y y a a d b B b c b b B m m b S S S S S S C d l d d d y d d d d d d d c B C ",
", a a , a d a d d d c d b d c B j d d a i y i d d j c d d c S / Q S Q / / Q / _ ` ` ` ] ] ] ) / b B c d d d B c c B N B b b C / ",
"c c c c b B B B B b b S C b b C b c B C c b B B B b B b b N Q / / ' ' ' ' '  . .' '  .' ` ` / Q S b B c c c b B N B C C N / S / ",
"b b N b b C N N N N N N N N N N b b b b m B M b m c b b M v Q  .^ { { { | |  . . . .| '  ./ W N N C b b c b b C C S S S N C / C ",
"v M v N N N N N N M N v M W N m N N M b m b c c c b M v M N Q ~ ! ^ ^ ^ ~ [ | ~ | | | _ _ ~ W W S N b b c c b C b N M b N N C C ",
"c c M M v v M E E N M v n W W W M N N M m c x x c b b N N W Q ! ! ! ! ! [ [ [ [ _ | _ ~ Q Q Q M N N b b c c m b N b M N N N N / ",
"v v v N N v M W E W W E E E E W E E W W M c c n M N n N N Q ! ~ ! [ { { [  .[ [ | ' [ ~ ^ ~ Q Q Q N N b v v M M N N N N W C N N ",
"! E W Q ~ ! ~ ^ ~ ~ ^ ^ ~ ~ ~ ` Q ! Q W n N N b C / / Q Q ^ ^ { | X.{ {  . .X. .X.X. . .' ' ~ ~ / Q W Q W Q W Q _ Q Q / Q Q Q Q ",
"%.%.*.%.*.%.*.=.*.*.*.*.=.6.6.X.*.%.%.%.W x x c / ` _ / _ ' %.} | X.} X.X.5.*.X.X.X.%.{ { *.%.{  . .' |  .X.X.| X.X. .| | ' ^ ^ ",
"h.h.q.h.r.i.r.j.r.s.s.i.j.j.h.i.s.k.i.y._ 0 w n Q Q / Q Q _ ! ! X.8.0.e.q.q.0.X.} } } } *.7.0.8.0.y.0.0.i.q.e.e.8.0.0.0.0.8.0.8.",
"h.h.h.h.h.q.r.h.h.h.z.j.z.h.e.i.r.h.h.f.<.w w v N W Q W W Q E E 6.j.l.z.l.z.z.0.9.5.5.5.0.z.x.x.c.z.z.z.n.m.m.n.m.m.M.N.m.c.c.m.",
"0.q.q.q.q.e.r.j.z.l.z.h.h.0.9.e.h.q.q.y.<.M e n N / / W W E E ! i.j.z.z.t.t.c.c.n.z.z.t.t.z.x.x.x.z.t.n.n.n.m.N.m.n.M.n.n.m.M.M.",
"t.q.q.h.h.r.h.z.z.k.z.h.s.0.0.e.k.h.q.8.=.n q x W Q ~ Q E M r [ i.j.z.z.r.h.c.c.c.z.z.z.t.x.n.n.n.z.t.n.n.m.m.m.n.n.n.z.t.x.n.n.",
"h.h.e.h.h.h.z.z.k.l.z.h.q.0.8.q.h.s.0.0.y.n 8 x S Q ^ ^ ~ W M ~ y.z.x.z.z.z.c.M.c.c.c.x.z.x.M.n.n.n.n.n.m.m.N.N.m.m.n.n.z.n.t.n.",
"e.j.z.h.h.z.z.j.h.c.j.h.q.0.8.q.h.h.0.0.a.E 8 x Q / ' ' ~ ! E E 6.j.l.x.z.c.c.c.c.c.c.c.x.b.M.x.m.m.n.n.m.m.m.N.m.n.n.m.m.m.n.n.",
"i.j.l.j.l.z.h.h.s.l.l.h.s.8.8.s.s.s.0.i.d.W 8 u N Q ^ ~ W ! E ~ 8.j.z.x.c.x.c.c.c.b.b.b.x.x.M.M.m.M.m.m.m.m.m.N.N.m.m.N.n.n.x.z.",
"j.z.l.j.c.z.h.h.h.l.l.h.s.s.d.h.h.s.i.i.d.W q u N Q / ~ W Q ~ ~ i.j.x.z.l.c.c.m.M.c.c.M.M.x.x.x.n.c.m.M.m.m.m.m.N.m.m.N.n.z.t.w.",
"j.l.l.l.c.k.h.h.j.c.j.j.j.d.j.j.h.y.i.i.i._ w s m C Q Q Q Q W ~ y.c.z.x.z.c.c.m.c.b.M.M.b.n.n.n.x.x.m.M.M.M.M.M.m.n.N.N.n.e.9.9.",
"e.h.j.s.s.s.0.7.s.i.i.d.a.i.y.y.6.5.6.i.h.` q u m N W E Q Q W ~ i.j.c.z.z.z.c.c.c.b.b.M.M.M.x.x.c.m.M.c.b.M.M.x.m.M.m.m.n.w.w.n.",
"0.i.i.7.0.q.7.*.6.7.y.y.y.y.8.=.=.*.8.y.d.| 9 u c b W W Q Q Q ~ s.c.l.z.z.j.z.c.c.c.M.x.x.x.z.x.x.M.m.x.x.M.c.M.m.M.M.m.n.n.n.m.",
"e.i.e.i.q.h.7.*.6.6.=.y.=.X.=.=.y.i.i.j.j.] 9 9 d m m W Q Q M E y.j.x.z.l.x.z.c.x.c.x.n.x.z.x.x.x.x.M.m.n.x.n.b.n.m.m.n.m.n.m.m.",
"h.i.h.h.h.h.s.0.s.0.<.y.2.=.=.6.i.i.i.i.j. .0 9 t s m m N m e r y.z.z.c.c.z.m.c.m.n.c.n.m.m.c.x.M.x.x.M.M.m.M.M.b.b.b.b.m.m.N.m.",
"j.j.j.j.l.l.z.f.s.s.y.a.a.u.=.| X.i.j.i.f...0 O t s c m m m e r 8.l.z.c.c.c.m.M.m.m.n.n.M.M.M.m.M.M.m.m.b.M.M.M.M.M.M.b.m.N.M.M.",
"j.j.j.c.c.l.z.z.l.j.s.y.y.y.y.X.=.i.h.s.d.] 9 O t u c m c x e M 8.j.j.c.c.m.m.m.m.M.m.M.M.M.M.M.M.M.M.N.M.M.x.m.m.M.N.v.v.M.N.M.",
"7.r.j.l.l.x.z.j.j.j.y.=.=.<.=.-.y.i.i.s.f.` o X t u d c c x x r 6.r.h.l.m.M.v.M.M.M.M.M.N.M.M.M.M.N.M.N.N.M.n.x.b.M.N.N.M.M.M.M.",
"6.q.f.b.l.c.z.h.s.s.8.=.2.y.y.s.i.8.0.i.i./   X O a d c c c x r =.i.q.l.n.m.m.m.M.M.M.M.M.M.M.M.M.N.N.M.M.M.b.b.M.M.M.v.M.c.x.z.",
"h.l.z.l.c.z.k.h.s.p.-.8.p.d.f.y.8.=.=.y.2.W   X O a c c c n x e =.h.z.l.l.x.c.m.m.m.m.m.M.M.M.m.m.M.M.N.N.M.b.b.b.c.c.c.l.f.q.q.",
"k.x.l.x.l.l.f.f.f.p.-.8.y.f.a.y.y.=.<.X.<.S o . O a d x m m x e ..j.j.h.h.l.c.c.v.n.c.m.M.N.m.m.N.M.M.N.M.c.x.x.l.c.j.s.y.i.p.s.",
"s.s.k.f.l.f.f.s.8.6.6.8.y.s.a.y.y.i.i.6.y.) 9 X X s c c c c u x =.j.l.z.h.j.c.m.M.M.m.M.M.m.m.N.N.M.b.b.b.c.k.f.j.f.i.y.s.d.d.f.",
"s.s.s.s.s.s.p.y.6.=.y.i.y.i.s.s.i.i.i.y.d.>.0 O O a b N b m x e $.l.l.c.z.j.z.x.m.m.m.c.m.n.c.n.c.b.b.x.b.k.k.b.b.k.p.p.f.f.8.q.",
"s.s.h.f.s.s.y.y.=.y.i.a.s.y.a.d.a.i.y.y.f.&.9 o O s b N m m x e =.l.l.c.x.z.j.c.c.l.z.c.c.c.c.c.c.j.k.f.f.f.q.f.f.p.8.d.l.f.-.q.",
"s.j.k.f.s.a.u.=.<.a.a.i.a.a.a.a.a.i.y.s.a.&.0 o O 0 c N N m m n =.l.l.l.v.j.z.l.v.j.j.j.j.j.v.l.f.f.f.f.f.2.4.p.-.%.-.f.g.f.p.k.",
"i.s.h.0.i.y.y.&.-.a.d.a.a.i.a.i.a.i.y.y.s.] 0 O O t c N m N N N X.h.j.j.v.l.j.l.v.v.j.j.j.j.l.g.d.d.d.f.f.p.f.f.p.%.2.d.a.f.f.k."
};
