/* XPM */
static char *result[] = {
/* columns rows colors chars-per-pixel */
"64 64 225 2 ",
"   c #4F2A15",
".  c #5A2C16",
"X  c #57311C",
"o  c #632D16",
"O  c #63321C",
"+  c #683219",
"@  c #7E3A1F",
"#  c #683A24",
"$  c #703D24",
"%  c #79432A",
"&  c #754B35",
"*  c #784D35",
"=  c #6D553B",
"-  c #7A543C",
";  c #6E5546",
":  c #7B5741",
">  c #7A5A46",
",  c #7E604B",
"<  c #7B6656",
"1  c #823B1D",
"2  c #823E23",
"3  c #844426",
"4  c #8B4425",
"5  c #8F4827",
"6  c #844529",
"7  c #8C4629",
"8  c #854A2D",
"9  c #8C4B2C",
"0  c #944525",
"q  c #934827",
"w  c #944B2C",
"e  c #9B4E2D",
"r  c #8F502E",
"t  c #96512E",
"y  c #9C512E",
"u  c #844C31",
"i  c #8B4E33",
"p  c #944E31",
"a  c #9A4F31",
"s  c #914F38",
"d  c #845134",
"f  c #8C5234",
"g  c #84553D",
"h  c #8B543A",
"j  c #8D5A3D",
"k  c #945334",
"l  c #9C5333",
"z  c #955837",
"x  c #9D5936",
"c  c #94553A",
"v  c #9B5639",
"b  c #945A3B",
"n  c #9D5B3B",
"m  c #A14E2C",
"M  c #A1522F",
"N  c #A8512F",
"B  c #A35533",
"V  c #A95634",
"C  c #A45936",
"Z  c #A95B36",
"A  c #A25638",
"S  c #A45C3A",
"D  c #AB5D3B",
"F  c #B05F3B",
"G  c #9D603D",
"H  c #A4613E",
"J  c #AC623D",
"K  c #B1633E",
"L  c #B2683F",
"P  c #855A44",
"I  c #8C5C43",
"U  c #935D42",
"Y  c #9C5D40",
"T  c #A45E40",
"R  c #AB5E40",
"E  c #8D6046",
"W  c #84624D",
"Q  c #8B644C",
"!  c #936246",
"~  c #9D6444",
"^  c #93654C",
"/  c #9B654B",
"(  c #956A4D",
")  c #9B6A4C",
"_  c #846A57",
"`  c #966B51",
"'  c #936A55",
"]  c #9B6D52",
"[  c #8A725E",
"{  c #997357",
"}  c #9C745B",
"|  c #A46343",
" . c #AC6442",
".. c #A56946",
"X. c #AC6945",
"o. c #A9674A",
"O. c #A46B4B",
"+. c #AC6C4A",
"@. c #B26542",
"#. c #B36A44",
"$. c #B96844",
"%. c #B36D4A",
"&. c #BA6E4A",
"*. c #B5714C",
"=. c #BA724C",
"-. c #A46D52",
";. c #A47454",
":. c #AC7150",
">. c #AD7553",
",. c #A2755D",
"<. c #A3795E",
"1. c #AB7A58",
"2. c #B37553",
"3. c #B97856",
"4. c #887464",
"5. c #997964",
"6. c #A37761",
"7. c #A47C63",
"8. c #AA7D64",
"9. c #99836C",
"0. c #9B8976",
"q. c #A88367",
"w. c #A4846D",
"e. c #AC846A",
"r. c #B1876D",
"t. c #A78A76",
"y. c #AC8B73",
"u. c #B28D74",
"i. c #B58D77",
"p. c #AC9277",
"a. c #B4947C",
"s. c #BB9478",
"d. c #BC947C",
"f. c #CA8B67",
"g. c #C09475",
"h. c #C1967D",
"j. c #C3997D",
"k. c #A99786",
"l. c #B49680",
"z. c #B99A83",
"x. c #BC9B83",
"c. c #B29E8B",
"v. c #B6A58D",
"b. c #BDA28C",
"n. c #AFA391",
"m. c #B7A894",
"M. c #BFB19B",
"N. c #C29B82",
"B. c #C99E82",
"V. c #C2A58C",
"C. c #C8A589",
"Z. c #D0A88B",
"A. c #C2AA97",
"S. c #C5AB94",
"D. c #C9AC95",
"F. c #CBAE9A",
"G. c #D3AE93",
"H. c #C9B29A",
"J. c #D4B49B",
"K. c #D9B59A",
"L. c #C3B5A4",
"P. c #C9B8A7",
"I. c #CBBBAA",
"U. c #D3BBA5",
"Y. c #D4BAA5",
"T. c #DCBCA4",
"R. c #CDBFB0",
"E. c #E1BDA2",
"W. c #D4C2AD",
"Q. c #DBC5AE",
"!. c #CDC7B6",
"~. c #D5C7B6",
"^. c #DBCAB4",
"/. c #DBCCBC",
"(. c #DBD1BD",
"). c #E4C6AB",
"_. c #E4CBB5",
"`. c #E7CCB6",
"'. c #E4CEBA",
"]. c #E3D2BD",
"[. c #EAD2BB",
"{. c #EDD8BE",
"}. c #D9CFC2",
"|. c #D9D5C1",
" X c #DCD4C3",
".X c #DCD6CA",
"XX c #DEDBCB",
"oX c #DFDDD0",
"OX c #E1CEC1",
"+X c #E4D5C3",
"@X c #EBD5C1",
"#X c #E4D9C5",
"$X c #ECDAC5",
"%X c #E6D6C9",
"&X c #E3DCCB",
"*X c #EBDDCB",
"=X c #F1DDCB",
"-X c #E2DDD1",
";X c #ECDED2",
":X c #F0DFD2",
">X c #E7E0C6",
",X c #E5E1CE",
"<X c #ECE2CD",
"1X c #F2E2CD",
"2X c #E5E2D2",
"3X c #ECE4D4",
"4X c #ECE9D5",
"5X c #E5E1D8",
"6X c #EBE6DA",
"7X c #EEEBDC",
"8X c #F2E4D4",
"9X c #F4E9D6",
"0X c #F5E5D8",
"qX c #F3EBDC",
"wX c #F9EDDD",
"eX c #FAF2DF",
"rX c #EEECE3",
"tX c #F2EEE4",
"yX c #F5EEE5",
"uX c #EEF3E7",
"iX c #F4F1E5",
"pX c #FBF2E2",
"aX c #F4F4E9",
"sX c #F9F6EA",
"dX c #F8F8EC",
/* pixels */
"D R  .S n p x S X.|  .%.+.T S R  .H @.X. .S R T S T | D G X.+.:.+...+.G ~ k f ..| | ! v.0X7X7XqXL.- * f u 8 h z z 8 f z z k f f ",
"T n Y Y Y c z n | H v n S Y n n b c c k c b s U p b ~ z h G ~ b b h h - d j I I I g & k.7X3X2X2Xm.= - - d * d f h 8 d h d d f * ",
"o o O O X O # $ + + o o O # . X # * % $ % P P U I E ! ^ ) ] ` ( ' { Q #   X & Q W - ; L.tX3X,XXX!.M.H.J.H.V.d.C.s.d.C.d.u.u.j.a.",
"; ; ; ; > < < 4.[ _ _ _ < < < 4.0.n.c.n.m.A.F.R.Q.W.Q.^.^.^././.^.W.M.n.9.t.I./.^.(.(.4X2X5X6X6X,X4X9XqXwXwXqX4X<X1X1X1X*X<X8X1X",
"}.}.|.|.&X.X|.(..X&X.XoX5X5X5X-X6X7X7XqX7X7X3X3X3X7X7X3X3X4X3XqX7X,X2XXXL.!.2XXX&X4X4X2XoX-X2X5X,X4X,X!.XX6X4X,X4X4X3X2X&X|.2X7X",
"pXyXqXeXwXqX,X,X.X.X-X-X6XuXaXtXqX7X2X2X7X3X&X|..X2X3X2X&X2X5X2X&X-X-X.XXX5X2XXXXX,X|.|..X;X6X6X2XoXoXP.M.n.v.M.H.L.!.,X#X/.!./.",
"qX0X0X9X9X<X X X X/.|./.#X&X&X6X9X8X,X*X<X4X<X#X,X3X9XeXtX<XqXqXqX#X|./.#X3X9XpXwX*X/.*X;XyXpXwX7X,X4X<XP.0.9.9.p.n.W.*X<X1X&X*X",
"+X$X$X$X].H.m.I.(.(.^.W.Q.W.Q.+X1X1X>X>X{.1X].Y.[.=X`._.`.Q.[.[.Y.l.a.N.J.K.K.).).G.D.K.).`.).).[.].[.{.+XU.a.{ w.Y.@X$X$X$X*X*X",
"5.6.6.6.} , t.W.!.^.V.e.6.} q.s.a.i.u.u.r.q.( Q q.e.] E ] ( ( ^ I d g b / b b / ~ g d b ! / ) ) ) ) ) ] 1.q.( j ( 8.r.q.7.7.7.7.",
"b b z h I P k.<X<X^.5.u 6 9 8 r s s | / z 9 5 z 9 r 9 9 n k 4 4 9 t x k k k z x x p p w 9 7 5 k r r C r 3 t z t k p v v w 7 2 6 ",
"B B A p u g x.8X<X[.<.6 q y y t l v B l t t B C q w q y C y e y e B v B D S A A B e l B M e e M N Z C M l M Z C D Z Z F V B B B ",
"A A l w h I b.3X3X$Xq.k y M q r S S v l t M C C y M y y B B e B B l B l A B l A A l l B M B B B M C e y M C Z Z =.@.M M B V B N ",
"B l a v c I A.3X7X(.7.p M M e t x p k l q q B C l l B l S l q l B v A A A l 0 a S l e e y e B B C M B B C V M Z J V 0 e M V B M ",
"S a a v i ^ F. X&X#XA.b B C l l y t x x y w l S l C B l C S B l a l l v l B a w e e e e y M B B B Z Z y M Z V V V M M M M B V M ",
"p w p p f ' F.+X(.,X].o.e q y y y t 5 z q x H S x S y t S B l S S v l l l l A B B a B B M M e M B B B e M V M J V M B M M a B B ",
"m p 0 p c I V.&X,X4XT./ A x l l x z 4 t x C S C l H C l B 5 q l l e w l a a l T A l l B B M M B B M B B q 0 M Z V M V B e B B a ",
"a a a A Y P D.%X,X&X9.c D  .B l A b p l x S D S n C n S S v l y A S a a a a B A A l B l a M M B B B B B e e B M N y M M y B C M ",
"a a 2 T U P F.:X4X*X9.z A A l m y l k S l x C S C w 5 e D C A B A v l a w w a A S B B l N B M B B B V B Z D Z V N C M B B B D B ",
"l w 2 p p P F.*X,X>Xy.k N a e a l e 7 e w x S l l C v S S C l a a A l w p w B A a B B D D A B M B B B B V B m B Z Z Z Z D B V B ",
"A p p a i P D.%XXX$Xa.z a w a a l k 7 v l C S B v B l l D v a M a a a a a a e l l B A D B a N a e B Z B D B m B N B M C B m B e ",
"l p 7 p s P J.*X(.{.b.n l B x y l v v T S C x B l S l q v w q y w q S B e e e l B A l A a a N M B M A M A A A Z V B M e B B V M ",
"7 p s v i I Y.+X X$Xy.z l l l t v v A n l x x v t C x 9 l l y l l l n l 4 2 l l l v k a p l A A M M A M M 0 M B B B M e m m B V ",
"p p p p h I C.~.(.^.} k C l t y A v k a q k l x l v k w x y l e e l w e l k l l v A p 2 v D A B v A a a a 0 M A B B M B M m m 0 ",
"a a 7 @ s P 8.I.(.].} 9 B B y l R n p a e x x l l v l w S C a e e e l v B l a l a a a B A B B m N M a 0 M B M 0 M B B B m m V M ",
"p p 2 2 s & , n.~._.{ 7 B y y y v a w w a x l x y l k 4 v S a a l l l l a p a M A a a A A 0 e B m e M e e M M M B y q B Z y B M ",
"a p 2 p s $ 5.R.R.b.Q i B y y l B x l v x v x n l x v 7 S S B A B l B a a w a v A p 7 a l a B M e e M e q M B B B y l H Z B B m ",
"s s i o.U : w.}.R.H.Q k l t k l S n k w p b k p v k p 9 k w l A l k v n p p p 7 s Y T v v S v l y y l y B B y B C x v S v B C B ",
"s s 2 U u & 5./.!.L.w.* 9 f r 9 i f i % @ u i s c f i f f 9 6 k i k i 6 % 6 6 6 2 i u u i 7 9 7 5 9 9 5 9 9 9 p l 9 4 t q q y e ",
"$ # # #   X [ /. X XI.q.} <.} 7.,.7.y.d.d.x.N.l.i.d.N.N.h.r.8.8.8.6.,.' ,.<.,.^ ' 5.' ^ ^ ( ) Q ^ ^ ! E ( ^ E ! E I ! E h b ! b ",
"k.k.0.0.0.4.n. X&X%X#X].].$X%X%X*X3X3X0X0X0XtX0X0X0X0XtX0X:X6X:X:X;X;X;X;X:X:X%X;X;X;X%X%X*X*X%X+X@X+X+X*X#X#X'.'.].].(.^./.'.^.",
"rXrX6X6XrX-X6X6X3X2X3X7XtXaXdXdXdXaXaXrXtXrXrXrXrXrXrXrXyXtXrXtXyXtXaXaXtXtXyXtXaXtXrXtXyXdXsXiXiXdXsXaXdXuXaXpXpXaXsXsXaXsXsXsX",
"yXyXyXyXrXtXyXtX6X7X3XrXtXtXtXrXrXtXrXrX6X-XrXrXtXtXtXaXtXuXtXtXrXrXtXtXrXuXaXrXrX7XrXrXrXtX7XiXqXqX7XrXrXrXrXtX7XqXiX7XqXqXqXtX",
"0X0X0X0X8X8X0X9X8X8X0X:X0X:X:X;X8X9X9X9X1X1X1X9X0X0X8XwX9X0X9XeXyX0XwXpXpXwXpXpXeXeXeXeXqXiXpXeXpXeXeXpXpXpXpXpXpXyXpXwXwXwXwXyX",
"j.d.d.d.x.C.j.d.B.Z.B.x.N.N.i.8.s.Z.j.j.j.g.g.j.C.j.h.C.C.N.C.G.G.G.J.K.E.E.E.).).).).1XeX4X(.'.[.[.].`.[.@X$X$X@X=X*X*X$X=X=X=X",
"d f b z ~ O.~ ~ >.2.....2.2.| z ..X.H H X.G G x H H G +.:.z z ~ o.| ~ O.~ G :.1.>.O.;.H.9X^.[ ( ] ` / / ] -.) ] ] <.6.,.} } e.u.",
"S S | b k | ....X.| | o.%.2.3.X.H H J H C J J J J H C H %.X.X.X.#. . .X.r G X.X.G H G v.1XQ.[ ~ S T S S S x C C v a n A p w v A ",
" .T S z n 2.X.X.+.X.| H x | #.D D K K C Z J L L J J L K J L L @.@.@.#.#.%.%.*.L M L O.a.<X{.V.+.D @.$.R R F D K V V @.$.@.F F F ",
"| S l k 2.3.| ....X.H S y S H D J Z J K J J L L L L J J J #.#.K X.@.#.=.=.#.%.L y J +.j.8X9XV.O.D $.R V F B B F F V D D D D @.$.",
"l 7 7 b 3.+.| :...+.*.*.#. .H C C D @.#.J L &.#.L K D K L L L L #.@.J @.L #.*.L C L ..l.9X9XS.>.&.R 2 N @.B D J R D B B Z B D @.",
"l x x n o.H H X.:.+.H n J J H B C @.@.J J L =.#.L J J J J H 4 5  . .C x J *.#.L C L ~ a.9XqXH.1.f.$.N F D B D B D F D D D R @.@.",
"T T | n | | H n o.o.w 9 S X.J J J K B C @.#.#.H J J J L J G z H S C l H #.X.*.=.#.=.>.s.8XwXD.-.+.@.R @.D D J B R R D S D @.F D ",
"S b | n k n | o. .v |  .H J X.L J J y C H K J J J H Z J L J L H X.H C @.#.X.*.=.3.3.r.d.=X1Xs.| D  .#.@.@.J J Z R D Z V Z A M B ",
"| n k q z H |  .S v  . .S H J J @.K @.#.#.#.L X.J Z J L L H H H X.H X.H G L L *.=.3.3.s.1X1Xi.~ X.@.@.J @.@.K D D V B D F @.Z Z ",
"b H | b S n H H v p A l y D D Z H L J #.$.#.#.#.L L K L L #.*.L H J #.X.J L H J *.X.O.V.9X8Xa.~ %.&.#.K K H D F F @.@.@.@.R D D ",
"H G ~ H H n S S n S S v B J D Z J J Z J #.#.L L L K K K J @.#. .D X. .S @.%.H L *.*.) a.8X8XN.O.=.$.D e D F F V D $.@.@.@.Z Z D ",
"n S n S X.#.%.X.+.*.+.| S J F F L L Z Z #.#.H l l K J H C C H #.J  .=.#.X.#.*.#.*.*.O.7.[.:Xz.| #.#.J y Z B Z K K K Z D @.D Z D ",
"x | | S X.H X.| o.X...X.L H F K L K J D J L L t 9 J J C C D @.J C  . .H H X.L X.#.*.>.r.=X8Xi.n K K K H C F D F K D D F J D R F ",
"+.O.G H S C | | G H X.X.2.@.K F L L L J J C Z r C L L Z C H @.#.#.X.S S J @.J X.*.*.>.s.=X1Xa.T K C C C S $.K F Z K @.@.J B D R ",
"k k n n S | +.T n S n z x S D V J #.L J K Z B l x D C H J H J #. .@.S S  .#.H J #.H x q.{.1Xd.G K F K J L &.#.Z Z K $.@.A V R @.",
"8 k S n  .@.X.S v v v p 3 z D S J @.J H  .B l R S C B J J S D H v A S R  .a q v @.l x q._.1Xa.x V K @.$.&.$.K K V F F F @.&.$.@.",
"S H | S H H  . .T T o.T .. .S  .H B y D D B @.R C Z J L J @. .D B C A B %.@.S D D R H 1.).1Xa.t F F F F K C J K Z F @.R $.$.R A ",
"H  .H l J H  .X.X. .%.%.%. .S C y y D K F K @.@.K L K J K D Z B B K @.D D R @.D B D z j Q.9XV.b F $.V V K F K K K K @.F R F D A ",
"z k i i n ~ Y ~ | c Y o.| z n G z x n S T c v c k G n k r z c k k n b k 9 z Y p i Y U l.$XeXY./ S T v v T Y | S S S S  .R D S n ",
"> : P 5.' W P Q Q > W { q.t.p.p.a.z.y.y.t.i.l.w.4.} 5.w.9.z.z.a.t.p.l.u.y.a.y.w.w.l.A.*X9XqX+Xa.8.8.} } } ` ) ( I h c U ~ / U b ",
"/.^.OX%X*X'./.OX^.I.W.W.^.+X<X<X<X8X*X*X;X3X0X3X*X%X;X;X3X3X8X8X8X3X8X8X3X1X*X<X*X8X0X9X4X7X8X<X:X$X@X$X@X].`.`.).T.E.E.E.K.G.G.",
"yXwX0XyXyXtXtXqXqX8XqX0X3X3X3X3X3X3X3X3X7X6X6X6X6X0X3X6X0X3X;X3X3X3X*X*X*X$X#X*X8X3X<X3X&X3X;X<X8X8X8X9X9XeXwXwXyXyXpXpXwXwXwXwX",
"qX7XrX7X7X7X7X7X3X7X7XqX7X7X3X2X,XXXoX,XoXoXoXoX-X&X-X.X.X&X&XXX%X<X*X*X.X(.(.*X#X#X X#X(.>X+X*X*X>X,X2X4X4X8X3X0X7XqXiX7X7XtXqX",
"iXpXiXuXuXrX7X6X7XaXsXiXaXaXaXdXaXuXuXdXuXuXrXrXrX0X6XqXqX4XqXqX3X3X<X3X,X*X#X X#X>X>X>X<X<X<X>X$X>X4X3X8X8X3X<X3XqXqXtXqX7X0XtX",
"I.L.!.(.oX2X6X7X7X<X^.I.~.'.+X/.].>X].].XX].W.H.F.m.c.U.Y.U.W.J.b.c.b.H.p.l.b.v.t.z.S.V.H.S.S.S.b.b.J.H.S.V.F.F.D.U.W.P.A.A.A.F.",
"_ , _ 4.k..X6X%XH.y.} / O.-.O./ O.O.;.q.1.;./ f s u z ~ 2.~ b z b z b b h b ..~ f ! -.-.G ~ ~ ..~ ~ ) ~ ~ n | T n ~ | Y v v p v ",
"- - > , 5.}.I.5.W / X. .@. .D T C C y x t t M y N e B C J l w y v y B D l D #.J S R 2.2.D B S D H H H y D D S B B m V N V N m N ",
"& & - , 5.R.L.4.E | D B D R S D L Z Z Z C Z V M V B D J D C C 2.3.v B A B S  .B v T #.R D D D D C C D H @.A a D Z V Z V V 0 m F ",
"W : > , 4.}.~.5.{ n B B C S B  .L V Z Z M V N M M q D K D S *.f.X.k w e e A @.S v #.T w A  .Z @.D B D D R a M A D D B e m 0 V F ",
"P - : - , n.P.S.8.b B D B  .D J Z Z L Z M M V Z Z M Z V l | f.*.4 1 a B B D K v B S v v B D D @.@.D D D A A M M D F V e M m Z F "
};
