/* XPM */
static char *result[] = {
/* columns rows colors chars-per-pixel */
"64 64 72 1 ",
"  c #676766",
". c #686866",
"X c #6D6D6C",
"o c #6E706D",
"O c #6E6F71",
"+ c #706F70",
"@ c #6F7171",
"# c #737474",
"$ c #787777",
"% c #787877",
"& c #767778",
"* c #777979",
"= c #7B7C7C",
"- c #807F7D",
"; c #7D7F80",
": c #7E8181",
"> c #7F8489",
", c #838484",
"< c #868887",
"1 c #898887",
"2 c #848689",
"3 c #86898B",
"4 c #8A8C8C",
"5 c #8E908F",
"6 c #868C92",
"7 c #8B8E92",
"8 c #8E9194",
"9 c #8E949B",
"0 c #929495",
"q c #969997",
"w c #92969B",
"e c #96999B",
"r c #999C9D",
"t c #9EA09F",
"y c #9097A1",
"u c #949BA2",
"i c #9A9EA2",
"p c #999FA8",
"a c #9EA1A4",
"s c #9DA3A9",
"d c #A1A4A5",
"f c #A5A8A7",
"g c #A2A6AA",
"h c #A6A9AC",
"j c #A9ACAE",
"k c #A0A7B0",
"l c #A6ABB1",
"z c #AAAEB2",
"x c #AEB1B5",
"c c #AFB4B9",
"v c #B1B4B6",
"b c #B2B6BA",
"n c #B6B9BD",
"m c #B9BCBE",
"M c #B7BBC0",
"N c #BABEC2",
"B c #BDC1C5",
"V c #BFC3C8",
"C c #C1C3C6",
"Z c #C6C8C6",
"A c #C2C5C9",
"S c #C6C9CD",
"D c #C9CBCE",
"F c #CACDD2",
"G c #CED1D5",
"H c #D1D3D6",
"J c #D3D5DA",
"K c #D6D9DD",
"L c #D9DBDF",
"P c #DBDEE2",
"I c #DEE1E4",
"U c #E0E3E5",
/* pixels */
"ABnmncnnnnbbcxzxxcnmnxxcxxcxxxcnnnmncxxffnnzkxcxnmnbVBmnztalcvjf",
"xMbbcBMnMnMbbxcccbbhflcxlxxxlxcnbnbzcbclzmxflzlkxnnmbnbza6talnha",
"nbzzcMMnccvcnbnNnbxxxxczlzfasfhatfakxcbxzjflxjfffftsszjsw696uf08",
"NnxxNMMBnvxzzxcxbnxxxcxaaatetettttfffqtfhhshlljzhlfkhffsa8w9as55",
"MMMBzlMBBBbnnnnnbhhxbbfe86q8880tafttr>afaaaattttadfttta9486wsajx",
"nxxlsgnmmBnccMMBbhcbbxse8we0>:5tatttffzftefffft05>5>:55:;35wtsjf",
"77886ieeire8eglhahlfft9eeqq4:*<>uflxxhffffvjhsq>:-:=****=3qq5ttt",
"@X@&&:&@&&O&702:*;>>2:=<>08>*=<tfffffftq5qtq5<-=******:==><48t5t",
";;;;;=&#@##%,,4,*oo@oX#**====:tfaq5,:<:-%%:---=-==**:-::::-,548t",
"<44444,;:,<<<,,4>#oo@@,<>:::>tfaq>,=--%%%=====*=====:,,,<<<4q0ta",
"qrq0ideeereei04458>::<805qqqdffaqq5><<<<5>,,:=-,-45554500qqdffvb",
"hzzvvlglhdhfd00qtatt88e55qaatafffjttttfttqqq00q58ettfajzfxmBmBZZ",
"ASANNMMNNMMcnxzzcklchsatkxxffccnBVmnBBBmnnbbvvbbnnmCZZDZDHJJKKKJ",
"HKKFGHHJGFFFFSASVVVVVBccnhaucVVJGHHHHKKHGGGGGGHJKKLLLLLLLLLIPPLL",
"FSASFFABMMGPPJPJGJGVVVVGVxkzBVHVKPPUIPIILLPPUUPIIIUIULLIILIIIIPI",
"cgglcvkkpkNAVFHNBBncczkzBcklNVKKKHDVZVVVGHLIPJGDGGFFGDZFGFJFZFBZ",
"bcbzxcxzxcMmMBBczcMMzlpupskkBGVVnnxxzcxxnmVGGBnnmbcnnnNmNBDVBBcc",
"zcbMMcMMxcMBBBcMMcNVNlpppklcVVBcllxxzzlcnnVGFVBNmcnMnmNNBBBNmnmB",
"vzzcccMclmBBBBMBNBBNMkpyuuucVVBccxcxllcNnnNBBBnNcxbbcnmBBnBBxzmm",
"bMMbzMNMbMBBBMNBNMNMMMkp>>ukVJBBnnNnxcMBncnnhafvxcxxnbbmxxNlejnx",
"MANvcMMzlMBMnnMBMnBBVVMpy>klBHVnnnxxlcbcxnNMbzllxnxnnbxjfhzttxbm",
"NblkxcxskMNNBVBBBMBBVMkyppuucVBBnxlxcccccnncncvxncnbbbvhhfxbnmmN",
"MhplMMMxcMMBBcMBBBBVVMyypsyyczqtcnMMncnncnNnvxxnMcxxxxzxbnxjbNNn",
"bxMNNMccnNBBBnMnnnBVVMsyyuakx>o:>tnMnMNbnnnnnnnNbxxhjhfbcxhaftth",
"MNVSNccMMnnNMMBBBBBVBzu9yyufl>o::o*>fvmnxbbbbnnbxxvxxxxvjjffjt5q",
"BBBMcccksxnngcBBBBBBcsy9yy9szd><<o.o<fzzxnmmbbcccvvvxvvvxcxzjfae",
"czxzlzlkvNnvMMMNBVVBcsu999yufBmff<<:=qt>0jbzcbzxcnccxxccjxjxffff",
"sghkgghbNNNNBNBAVFVBs8>99yytfmx5><qq<<qttfvvxcbnBmbxvvcjjjfxllvz",
"ggzzzcMMNAFFANBBBBBczu>>699ulxq:<5fxqqq<5jzmnnnNBBnnNnzxjlvnvxja",
"bbbbvNnMNAANCNnMBBBBns9>699txbt0:<ffqqq,<ttvnmmNBcxnNxxcjjnvlnvl",
"bvbbMMbNAANnbnAABBVBku96wuuylmvj5>t5<fq<55qlxnmbhalckhxzznvjvnfl",
"lhcbNSSAAANNNAAABVVcsuyyaaaahvmnrtfq5f<<fxtfffxkajxffzzvmxlllhff",
"bvNNAANCADAAAVVVVAAVgypyyyigzbNzq5qtfq@*td0tdqvvmvvjzzhMvznxdhga",
"zbNVNbvbNbpgbVAMzbMzypgkipglbNNg>=5vnq*:51,qf5vmZfdftizvjzbdfzgj",
"igzzvzidw12wiji120p727yippgzNNbw>>vZctq9qtqttdvfqq5,+,ar8tdgbvxm",
"$+-11011$+$11-$++;;+$$;270izbvw1>xVxfjlbmBCmZDZf-,1--05-5teegtfj",
"++++++$$+++-$-$+$-;$$+$$;7gllpwpxCZBVDVFGDSCFJDvt054541408171-11",
"+$111-$$+-1711--2;$+$$;177ypkpzbBFFGGVVFCNmDHNfgj047tde00q001444",
"110111-10iir0ewrw1;;--17wpgbbbzMFJHGblZmzzgNvq4000qedgfdfdittdia",
"rrrrr70dvbzjjzgpw70877wiglzzMbbVGFVVnxxxgril00e7147ighjbvjgdzxxz",
"zzggpjbNNVAAAbgkpplggzxbbbMAAMVFGBmBncBxtsnBzlpuwwigxMMMCZnmACAC",
"ACbMNADDDDAADNzMbADDADDASDFJJJJJVDmBFHHSVFDSVNMbbbMVMNMVDFFHFFHH",
"DAVDJJJJJJJHDAAFHJJHJKKKKPLPPPJKGVFHJHGZGGJKHFFFHJJHDGFGHJLLJHJJ",
"bbMNNCDHLLPLLPPPPPPPPPPPPPLLJKPPUIUULPKJIIPGSAJJJLLJJJGHFFDAAHHH",
"ppg7wbHDNDAbAJJJJHFJJJFDAMFLLJKJGLLFDHGGGJKJGSHPPJFFHHHJKFMgzDLI",
"pgzizNFNbbzzMADAVMMNSAVNbMHHFDDCVVDVDBnmMBSFGGHKLKJLGFHGGSgeNHLJ",
"zzzbbbNbbzzzbMMbMNMzMVMVFHANMbzbGVVnbznNmmxlcNBACVVVSHJHHGnlNmDA",
"bMNbbADNbbbzbzzzbzzzNDMNFANbipzNVBjjzlmBBmmmBSABbbbMSHKPLVggCADC",
"NbzzMDHNbmzzbzvbbNNNDMgMDAmiwzNNNNMbxvNNNvmbNmbbxbVMCAANjdppxSFA",
"NMbMNADNbzjbmbzjxMvvbgwzAMjgNNAAmnbbjzvMzjxvmxjxzbMbbzziwwuypCFm",
"MVVMMAHCMzzbNNzjzzgvziivNbggNCAbxCNvgbNnghbmbxbbvbmbjde417y71jAb",
"bMzMNDFVNmCAMzzMbzgggggvnbzMbbNjjMbNCACvzzbbjzmmbmvhgi0022770jmz",
"AANVVFJANNDAbzbNbbbbvzmNNvvMzvjgxnzxvvjjzjzhdjbvhhgzjzzzgu97ivzj",
"MNVVVFJADDNvzzMbbmNAANACvdggrjjzzzxxzjgjjzjjdfjrwdgggjbmzu77iMCz",
"MNVVDJFANNNzjbNNMbbnvvxjjzbbbmvzjxzzgjzvmzzmvvxtgvzjzjgdiw77dmng",
"VVNAFJANMbzwgzzvjiiggidzbbMMbvzjhxvxxgejzzmmmNvjvbvbmmvzgw7wjCmj",
"NNMNNNNNbbbjbbjgizmvjzzmbvMbvvjjzzzzxjzmvvmmmbvmmbvbMbvbbi7iNANi",
"izbMmNDADDNvbbbzvzvvbbmmzvzgiijzvvzhjzmMvbmvbbbmbbvjzvzzbsygzMAb",
"gbbbbMAHHDNbbmbbbjbbNNMbbzjjzMmnmmmjgzzzjvvmmbvbbbbnmvjzbgppgmNb",
"jbbbbNDHHDNbbbbMvbbbCbbNNvbvnnzxbvvjzzzjbbvmbbvvvbbbmmzbMp7widjz",
"bmbbbAHDbzvzzbvjzvvmnzvNbzvzzzxbmbvvbjzMmmjvbbbbbMMnMzvMby27egvm",
"zNNzzvg017ridzvzvvzzzxvdijjvbnMNmmzi71inmvvmvvvvmmnCmMbj7;18ebZC",
"1rr011$$$$+$$11iierjbzgiiigzgw8;12;$X-0irdjvmmvvmbbbbbzg2$1idmCj",
"$+++++$11-++++++  -0w4111-11$ -  - -$111--1rvdvmbbvvziew71rgjbzj"
};
